<svg id="svg" version="1.1" xmlns="http://www.w3.org/2000/svg" width="400" height="400" viewBox="0 0 400 400"><g id="svgg" stroke="none" fill-rule="evenodd"><path id="path0" d="M195.608 37.79c-.24.289-.385.77-.322 1.068.065.309-.164.497-.533.437-.765-.125-1.629.795-1.467 1.563.065.309-.164.497-.533.437-.765-.125-1.629.795-1.467 1.563.065.309-.164.497-.533.437-.765-.125-1.629.795-1.467 1.563.065.309-.164.497-.533.437-.765-.125-1.629.795-1.467 1.563.065.309-.164.497-.533.437-.765-.125-1.629.795-1.467 1.563.065.309-.164.497-.533.437-.765-.125-1.629.795-1.467 1.563.065.309-.164.497-.533.437-.765-.125-1.629.795-1.467 1.563.065.309-.164.497-.533.437-.765-.125-1.629.795-1.467 1.563.065.309-.164.497-.533.437-.765-.125-1.629.795-1.467 1.563.065.309-.164.497-.533.437-.765-.125-1.629.795-1.467 1.563.065.309-.164.497-.533.437-.765-.125-1.629.795-1.467 1.563.065.309-.164.497-.533.437-.765-.125-1.629.795-1.467 1.563.063.298-.13.491-.428.428-.768-.162-1.688.702-1.563 1.467.06.369-.128.598-.437.533-.768-.162-1.688.702-1.563 1.467.06.369-.128.598-.437.533-.768-.162-1.688.702-1.563 1.467.065.404-.138.607-.542.542-.765-.125-1.629.795-1.467 1.563.065.309-.164.497-.533.437-.765-.125-1.629.795-1.467 1.563.065.309-.164.497-.533.437-.765-.125-1.629.795-1.467 1.563.065.309-.164.497-.533.437-.765-.125-1.629.795-1.467 1.563.065.309-.164.497-.533.437-.765-.125-1.629.795-1.467 1.563.065.309-.164.497-.533.437-.765-.125-1.629.795-1.467 1.563.065.309-.164.497-.533.437-.765-.125-1.629.795-1.467 1.563.065.309-.164.497-.533.437-.765-.125-1.629.795-1.467 1.563.065.309-.164.497-.533.437-.765-.125-1.629.795-1.467 1.563.065.309-.164.497-.533.437-.765-.125-1.629.795-1.467 1.563.065.309-.164.497-.533.437-.765-.125-1.629.795-1.467 1.563.065.309-.164.497-.533.437-.765-.125-1.629.795-1.467 1.563.065.309-.164.497-.533.437-.765-.125-1.629.795-1.467 1.563.065.309-.164.497-.533.437-.765-.125-1.629.795-1.467 1.563.065.309-.164.497-.533.437-.765-.125-1.629.795-1.467 1.563.065.309-.164.497-.533.437-.765-.125-1.629.795-1.467 1.563.065.309-.164.497-.533.437-.765-.125-1.629.795-1.467 1.563.065.309-.164.497-.533.437-.765-.125-1.629.795-1.467 1.563.065.309-.164.497-.533.437-.765-.125-1.629.795-1.467 1.563.065.309-.164.497-.533.437-.765-.125-1.629.795-1.467 1.563.063.298-.13.491-.428.428-.768-.162-1.688.702-1.563 1.467.065.404-.138.607-.542.542-.765-.125-1.629.795-1.467 1.563.065.309-.164.497-.533.437-.765-.125-1.629.795-1.467 1.563.065.309-.164.497-.533.437-.765-.125-1.629.795-1.467 1.563.065.309-.164.497-.533.437-.765-.125-1.629.795-1.467 1.563.065.309-.164.497-.533.437-.765-.125-1.629.795-1.467 1.563.065.309-.164.497-.533.437-.765-.125-1.629.795-1.467 1.563.065.309-.164.497-.533.437-.765-.125-1.629.795-1.467 1.563.065.309-.164.497-.533.437-.765-.125-1.629.795-1.467 1.563.065.309-.164.497-.533.437-.765-.125-1.629.795-1.467 1.563.065.309-.164.497-.533.437-.765-.125-1.629.795-1.467 1.563.065.309-.164.497-.533.437-.765-.125-1.629.795-1.467 1.563.065.309-.164.497-.533.437-.765-.125-1.629.795-1.467 1.563.065.309-.164.497-.533.437-.765-.125-1.629.795-1.467 1.563.065.309-.164.497-.533.437-.765-.125-1.629.795-1.467 1.563.065.309-.164.497-.533.437-.765-.125-1.629.795-1.467 1.563.065.309-.164.497-.533.437-.765-.125-1.629.795-1.467 1.563.065.309-.164.497-.533.437-.765-.125-1.629.795-1.467 1.563.065.309-.164.497-.533.437-.765-.125-1.629.795-1.467 1.563.065.309-.164.497-.533.437-.765-.125-1.629.795-1.467 1.563.065.309-.164.497-.533.437-.765-.125-1.629.795-1.467 1.563.065.309-.164.497-.533.437-.765-.125-1.629.795-1.467 1.563.065.309-.164.497-.533.437-.765-.125-1.629.795-1.467 1.563.065.309-.164.497-.533.437-.765-.125-1.629.795-1.467 1.563.065.309-.164.497-.533.437-.765-.125-1.629.795-1.467 1.563.065.309-.164.497-.533.437-.765-.125-1.629.795-1.467 1.563.065.309-.164.497-.533.437-.765-.125-1.629.795-1.467 1.563.065.309-.164.497-.533.437-.765-.125-1.629.795-1.467 1.563.065.309-.164.497-.533.437-.765-.125-1.629.795-1.467 1.563.065.309-.164.497-.533.437-.765-.125-1.629.795-1.467 1.563.065.309-.164.497-.533.437-.765-.125-1.629.795-1.467 1.563.065.309-.164.497-.533.437-.765-.125-1.629.795-1.467 1.563.065.309-.164.497-.533.437-.765-.125-1.629.795-1.467 1.563.065.309-.164.497-.533.437-.765-.125-1.629.795-1.467 1.563.065.309-.164.497-.533.437-.765-.125-1.629.795-1.467 1.563.065.309-.164.497-.533.437-.765-.125-1.629.795-1.467 1.563.065.309-.164.497-.533.437-.765-.125-1.629.795-1.467 1.563.065.309-.164.497-.533.437-.765-.125-1.629.795-1.467 1.563.065.309-.164.497-.533.437-.765-.125-1.629.795-1.467 1.563.063.298-.13.491-.428.428-1.527-.321-2.143 2.616-1.008 4.81 1.062 2.054 5.02 5.68 6.062 5.554.605-.073 25.47-24.669 73.878-73.08 67.79-67.793 73.06-72.969 74.288-72.961 1.221.009 6.909 5.597 74.275 72.978 48.969 48.98 73.26 73.01 73.886 73.091 1.808.236 5.361-3.85 5.361-6.164 0-1.053-.18-1.914-.4-1.914-.22 0-.4-.354-.4-.786 0-.803-1.292-1.789-1.747-1.333-.139.139-.253-.131-.253-.6 0-.855-1.273-1.875-1.747-1.4-.139.139-.253-.131-.253-.6 0-.855-1.273-1.875-1.747-1.4-.139.139-.253-.131-.253-.6 0-.855-1.273-1.875-1.747-1.4-.139.139-.253-.131-.253-.6 0-.855-1.273-1.875-1.747-1.4-.139.139-.253-.131-.253-.6 0-.855-1.273-1.875-1.747-1.4-.139.139-.253-.131-.253-.6 0-.855-1.273-1.875-1.747-1.4-.139.139-.253-.131-.253-.6 0-.855-1.273-1.875-1.747-1.4-.139.139-.253-.131-.253-.6 0-.855-1.273-1.875-1.747-1.4-.139.139-.253-.131-.253-.6 0-.855-1.273-1.875-1.747-1.4-.139.139-.253-.131-.253-.6 0-.855-1.273-1.875-1.747-1.4-.139.139-.253-.131-.253-.6 0-.855-1.273-1.875-1.747-1.4-.139.139-.253-.131-.253-.6 0-.855-1.273-1.875-1.747-1.4-.139.139-.253-.131-.253-.6 0-.855-1.273-1.875-1.747-1.4-.139.139-.253-.131-.253-.6 0-.855-1.273-1.875-1.747-1.4-.139.139-.253-.131-.253-.6 0-.855-1.273-1.875-1.747-1.4-.139.139-.253-.131-.253-.6 0-.855-1.273-1.875-1.747-1.4-.139.139-.253-.131-.253-.6 0-.855-1.273-1.875-1.747-1.4-.139.139-.253-.131-.253-.6 0-.855-1.273-1.875-1.747-1.4-.139.139-.253-.131-.253-.6 0-.855-1.273-1.875-1.747-1.4-.139.139-.253-.131-.253-.6 0-.855-1.273-1.875-1.747-1.4-.139.139-.253-.131-.253-.6 0-.855-1.273-1.875-1.747-1.4-.139.139-.253-.131-.253-.6 0-.855-1.273-1.875-1.747-1.4-.139.139-.253-.131-.253-.6 0-.855-1.273-1.875-1.747-1.4-.139.139-.253-.142-.253-.623 0-.545-.377-1.047-1-1.331-.55-.25-1-.7-1-1 0-.299-.45-.749-1-1-.55-.25-1-.7-1-1 0-.299-.45-.749-1-1-.55-.25-1-.7-1-1 0-.299-.45-.749-1-1-.55-.25-1-.7-1-1 0-.299-.45-.749-1-1-.55-.25-1-.7-1-1 0-.299-.45-.749-1-1-.55-.25-1-.7-1-1 0-.299-.45-.749-1-1-.55-.25-1-.7-1-1 0-.299-.45-.749-1-1-.55-.25-1-.7-1-1 0-.299-.45-.749-1-1-.55-.25-1-.7-1-1 0-.299-.45-.749-1-1-.55-.25-1-.7-1-1 0-.299-.45-.749-1-1-.55-.25-1-.7-1-1 0-.299-.45-.749-1-1-.55-.25-1-.7-1-1 0-.299-.45-.749-1-1-.55-.25-1-.7-1-1 0-.299-.45-.749-1-1-.55-.25-1-.7-1-1 0-.299-.45-.749-1-1-.55-.25-1-.7-1-1 0-.299-.45-.749-1-1-.55-.25-1-.7-1-1 0-.299-.45-.749-1-1-.55-.25-1-.7-1-1 0-.299-.45-.749-1-1-.55-.25-1-.7-1-1 0-.299-.45-.749-1-1-.55-.25-1-.7-1-1 0-.299-.45-.749-1-1-.55-.25-1-.7-1-1 0-.299-.45-.749-1-1-.55-.25-1-.7-1-1 0-.299-.45-.749-1-1-.55-.25-1-.7-1-1 0-.299-.45-.749-1-1-.55-.25-1-.7-1-1 0-.299-.45-.749-1-1-.55-.25-1-.7-1-1 0-.299-.45-.749-1-1-.55-.25-1-.69-1-.977 0-.604-1.373-1.444-1.747-1.069-.139.139-.253-.131-.253-.6 0-.855-1.273-1.875-1.747-1.4-.139.139-.253-.131-.253-.6 0-.855-1.273-1.875-1.747-1.4-.139.139-.253-.131-.253-.6 0-.855-1.273-1.875-1.747-1.4-.139.139-.253-.131-.253-.6 0-.855-1.273-1.875-1.747-1.4-.139.139-.253-.131-.253-.6 0-.855-1.273-1.875-1.747-1.4-.139.139-.253-.131-.253-.6 0-.855-1.273-1.875-1.747-1.4-.139.139-.253-.131-.253-.6 0-.855-1.273-1.875-1.747-1.4-.139.139-.253-.131-.253-.6 0-.855-1.273-1.875-1.747-1.4-.139.139-.253-.131-.253-.6 0-.855-1.273-1.875-1.747-1.4-.139.139-.253-.131-.253-.6 0-.855-1.273-1.875-1.747-1.4-.139.139-.253-.131-.253-.6 0-.855-1.273-1.875-1.747-1.4-.139.139-.253-.131-.253-.6 0-.855-1.273-1.875-1.747-1.4-.139.139-.253-.131-.253-.6 0-.855-1.273-1.875-1.747-1.4-.139.139-.253-.131-.253-.6 0-.855-1.273-1.875-1.747-1.4-.139.139-.253-.131-.253-.6 0-.855-1.273-1.875-1.747-1.4-.139.139-.253-.131-.253-.6 0-.855-1.273-1.875-1.747-1.4-.139.139-.253-.131-.253-.6 0-.855-1.273-1.875-1.747-1.4-.139.139-.253-.131-.253-.6 0-.855-1.273-1.875-1.747-1.4-.139.139-.253-.131-.253-.6 0-.855-1.273-1.875-1.747-1.4-.139.139-.253-.131-.253-.6 0-.855-1.273-1.875-1.747-1.4-.139.139-.253-.131-.253-.6 0-.855-1.273-1.875-1.747-1.4-.139.139-.253-.131-.253-.6 0-.855-1.273-1.875-1.747-1.4-.139.139-.253-.131-.253-.6 0-.855-1.273-1.875-1.747-1.4-.139.139-.253-.131-.253-.6 0-.855-1.273-1.875-1.747-1.4-.139.139-.253-.131-.253-.6 0-.855-1.273-1.875-1.747-1.4-.139.139-.253-.131-.253-.6 0-1.533-6.061-2.453-7.192-1.091M126.7 126.859c-56.004 56.066-72.3 72.596-72.3 73.341 0 1.329 144.391 145.8 145.72 145.8 1.558 0 146.058-144.838 145.744-146.086-.433-1.728-144.573-145.522-145.823-145.474-.829.032-15.738 14.753-73.341 72.419m109.86-8.338c.871.637.381 1.136-1.812 1.842-.798.257-1.762.81-2.141 1.229-.38.42-1.189.872-1.798 1.006-.61.134-1.523.684-2.028 1.223-.506.538-1.07.979-1.253.979-.183 0-1.401 1.125-2.707 2.5a486.978 486.978 0 01-3.197 3.342c-.453.463-.824 1.023-.824 1.245 0 .222-.54 1.082-1.2 1.913-.66.831-1.2 1.721-1.2 1.98 0 .258-.347.842-.772 1.298-.425.456-.966 1.548-1.203 2.429-.237.88-.695 1.819-1.017 2.087-.323.267-.698 1.143-.835 1.946-.136.803-.577 1.929-.979 2.502-.403.573-.925 2.088-1.162 3.367-.236 1.279-.682 2.61-.991 2.958-.309.348-.768 1.983-1.02 3.632-.253 1.65-.705 3.375-1.005 3.833-.433.661-1.416 8.685-1.416 11.561 0 .303-.267.817-.594 1.144-.425.424-.693 2.123-.943 5.971-.234 3.592-.561 5.762-.986 6.535-.35.636-.817 2.825-1.038 4.864-.221 2.039-.669 4.199-.995 4.8-.325.601-.776 2.663-1.002 4.582-.226 1.919-.692 4.033-1.035 4.698-.568 1.097-.566 1.387.015 3.164 1.014 3.1-.934 6.849-3.558 6.849-1.449 0-4.264-1.726-4.264-2.614 0-.835-.921-.725-1.485.178-.262.42-1.068.894-1.79 1.052-.722.159-1.676.521-2.119.805-1.4.895-5.045.883-5.949-.021-.33-.33-.87-.6-1.2-.6-.848 0-3.287-2.406-3.649-3.6-.166-.55-.596-1.334-.955-1.743-1.071-1.219-.902-7.58.256-9.651.49-.877.891-1.88.891-2.23 0-.35.45-1.059 1-1.576.55-.517 1-1.094 1-1.283 0-.395 2.645-3.117 3.029-3.117.14 0 .764-.428 1.385-.95 2.032-1.71 9.386-1.759 10.619-.072 1.475 2.017 2.949.23 2.963-3.591.002-.667.272-2.197.599-3.4.681-2.502.836-4.271 1.223-13.987.251-6.291.195-7.344-.545-10.4-.453-1.87-.93-4.21-1.059-5.2-.13-.99-.586-2.88-1.014-4.2-.429-1.32-1.039-3.21-1.356-4.2-1.127-3.516-2.246-6.52-2.59-6.957-.192-.244-.554-1.073-.804-1.843-.406-1.255-1.41-3.264-4.091-8.188-.976-1.791-2.199-3.609-3.265-4.852-.627-.731-.645-.903-.136-1.325.97-.805 4.02 1.24 6.242 4.185 3.333 4.418 5.583 7.807 5.593 8.426.004.245.341.875.749 1.4.408.525.957 1.615 1.22 2.422.264.807.721 1.669 1.017 1.914.295.246.646 1.028.78 1.74.133.711.588 1.937 1.01 2.725.422.787.98 2.224 1.24 3.192.26.969.97 2.439 1.579 3.267l1.105 1.507.466-2.368c.256-1.302.726-2.583 1.043-2.847.317-.263.692-1.092.833-1.842.14-.749.569-1.766.952-2.259.383-.494.921-1.585 1.195-2.425.274-.84.734-1.618 1.022-1.729.288-.11.642-.671.786-1.245.144-.574.655-1.539 1.136-2.144a53.606 53.606 0 001.874-2.56c3.971-5.799 11.238-12.194 13.858-12.194.415 0 1.382-.35 2.148-.777 1.629-.908 5.092-1.078 6.154-.302m53.255 59.751c1.217 1.217.613 4.826-1.039 6.205-2.877 2.401-7.625.908-6.957-2.188.369-1.706 1.631-4.163 2.27-4.421 1.288-.517 5.071-.251 5.726.404m-193.541.908c1.606.979 1.959 1.667 2.3 4.483.151 1.244.602 2.905 1.003 3.691.4.786.853 2.601 1.007 4.033.23 2.15.461 2.748 1.326 3.428l1.047.824.578-1.12c.318-.615.823-1.263 1.122-1.439.298-.176.543-.575.543-.886 0-.311.54-1.181 1.2-1.933.66-.752 1.2-1.558 1.2-1.791 0-.234.315-.66.7-.947.385-.288 1.043-1.198 1.463-2.023.42-.825.893-1.5 1.051-1.5.159 0 .513-.54.786-1.2.273-.66.651-1.2.838-1.2.188 0 .617-.533.954-1.185 1.149-2.222 6.734-2.734 8.329-.765.839 1.037.707 3.229-.31 5.113-.307.571-.748 2.639-.978 4.597-.231 1.958-.667 3.938-.97 4.4-.303.462-.761 2.62-1.017 4.796-.257 2.176-.727 4.425-1.045 5-.318.574-.749 2.574-.959 4.444-.483 4.312-1.655 5.6-5.098 5.6-3.529 0-4.571-2.384-2.702-6.186.32-.652.746-2.773.947-4.712.201-1.94.645-4.089.988-4.776.343-.687.607-1.806.587-2.487l-.036-1.239-.376 1.3c-.259.9-.617 1.3-1.163 1.3-.491 0-.789.27-.789.715 0 .393-.533 1.338-1.184 2.1-.651.762-1.191 1.6-1.2 1.862-.009.263-.35.713-.759 1-.408.288-.866.915-1.017 1.394-.529 1.672-3.514 4.167-4.837 4.042-1.559-.147-3.674-3.255-4.007-5.888-.514-4.058-.628-4.393-1.777-5.211l-1.15-.82-.255 3.103c-.14 1.707-.54 3.823-.889 4.703-.348.88-.837 3.034-1.085 4.788-.572 4.043-1.827 5.197-5.347 4.914-3.068-.246-4.041-1.857-2.689-4.45.329-.631.768-2.638.974-4.459.207-1.82.658-3.983 1.001-4.805.343-.821.797-3.013 1.008-4.87.211-1.857.662-3.935 1.002-4.617.341-.682.801-2.848 1.024-4.813.735-6.495 4.208-9.024 8.661-6.308m43.892 8.391c1.082.177 2.162.587 2.4.91.239.324.839.804 1.334 1.068.495.263.9.7.9.969s.351.709.78.977c.447.279.885 1.132 1.024 1.996.134.83.502 1.985.818 2.568.56 1.032.439 3.232-.228 4.141-.161.22-.423 1.294-.581 2.387-.172 1.183-.678 2.45-1.251 3.131-.529.629-.962 1.316-.962 1.526 0 .48-2.649 3.156-3.125 3.156-.193 0-.678.362-1.078.803-.4.442-1.463 1.017-2.362 1.278-.899.26-2.018.715-2.486 1.01-1.217.768-5.761.769-7.189.003a24.99 24.99 0 00-2.36-1.085c-4.346-1.672-6.36-12.126-3.169-16.451.533-.722.974-1.503.981-1.736.015-.547 3.726-3.936 5.788-5.286 2.279-1.492 6.632-2.044 10.766-1.365m32.974 1.507l1.34 1.454-.146 4.634c-.107 3.392-.327 4.956-.82 5.834-.372.66-.839 2.74-1.039 4.622-.628 5.907-2.058 7.954-5.566 7.969-3.325.014-4.425-3.499-2.351-7.51.607-1.173 1.432-6.768 1.439-9.754.004-1.755-.695-2.111-3.356-1.712-1.293.194-1.824.477-1.975 1.055-.114.434-.56.882-.991.995-.598.156-.898.79-1.261 2.67-.262 1.356-.705 2.825-.985 3.265-.28.44-.633 1.97-.785 3.4-.466 4.387-.677 5.081-1.929 6.362-1.682 1.721-5.001 1.818-6.286.184-1.014-1.289-1.015-1.756-.011-4.546.436-1.21.957-3.669 1.159-5.465.202-1.796.65-3.814.996-4.483.347-.67.801-2.87 1.01-4.889.578-5.593 3.989-7.535 8.015-4.564l1.354.998.953-.896c2.191-2.058 9.209-1.823 11.235.377m48.827-1.502c1.035.2 2.033.693 2.409 1.192l.642.851 1.369-1.009c3.681-2.716 8.923-.534 7.034 2.928-.319.584-.763 2.75-.987 4.812-.224 2.063-.684 4.171-1.021 4.686-.453.692-.639 2.256-.713 5.985-.1 5.035-.103 5.051-1.272 6.057-1.799 1.547-6.228.341-6.228-1.696 0-.297-.695-.121-1.868.472-1.027.52-2.138.946-2.468.946-.331 0-.919.287-1.307.639-2.007 1.816-8.01-.164-10.428-3.439-1.581-2.141-2.218-10.677-.955-12.8.327-.55.819-1.45 1.094-2 2.875-5.759 8.703-8.781 14.699-7.624m36.433 1.144c1.582 1.815 2.213 1.847 4.649.23 4.489-2.98 10.491-2.009 11.672 1.888.66 2.18-.04 10.327-1.132 13.162-.381.99-.825 2.97-.987 4.4-.355 3.139-.675 3.811-2.194 4.596-3.625 1.874-7.831-.786-5.808-3.674.33-.472.77-2.497.977-4.502.207-2.005.657-4.207 1-4.894 1.231-2.468.853-4.994-.794-5.303-3.761-.705-6.545 2.828-7.307 9.274-.238 2.012-.712 4.2-1.054 4.861-.342.661-.622 1.547-.622 1.968 0 2.583-4.782 4.083-6.603 2.071-1.084-1.198-.783-6.473.514-8.997.949-1.846 1.206-8.903.337-9.237-1.291-.495-4.148.213-4.376 1.085-.117.446-.557.902-.979 1.012-.586.153-.879.816-1.251 2.831-.266 1.447-.723 3.098-1.014 3.67-.292.571-.717 2.658-.944 4.637-.51 4.434-1.671 5.802-4.925 5.802-3.405 0-4.664-2.303-3.008-5.505.348-.674.823-2.902 1.055-4.952.233-2.05.669-4.103.97-4.562.301-.46.751-2.513 1-4.562.778-6.4 3.773-8.414 8.122-5.462l1.41.957.828-.828c1.877-1.877 8.818-1.855 10.464.034m54.717.324l1.362 1.486-.14 4.853c-.106 3.688-.3 5.099-.809 5.875-.379.578-.786 2.306-.937 3.982-.576 6.373-1.91 8.36-5.615 8.36-3.342 0-4.617-4.039-2.361-7.482.916-1.398 1.715-10.856.96-11.364-2.288-1.54-6.46 1.308-7.227 4.934-.246 1.162-.676 2.562-.957 3.112-.28.55-.632 2.26-.782 3.8-.547 5.608-1.754 7.138-5.462 6.921-1.718-.1-2.207-.308-2.89-1.225l-.821-1.104 1.053-3.296c.579-1.813 1.151-4.536 1.271-6.051.12-1.515.48-3.155.8-3.643.32-.488.779-2.662 1.021-4.831.562-5.04 1.124-5.771 4.433-5.771 1.67 0 2.547.213 3.293.8 1.248.982 1.805 1.002 2.8.101 2.068-1.871 9.115-1.524 11.008.543m-25.111-.837c.624.752.297 4.047-.568 5.72-.333.643-.726 2.408-.873 3.921-.147 1.514-.598 3.742-1.002 4.952s-.909 3.64-1.121 5.4c-.482 4.002-1.747 5.4-4.883 5.4-3.405 0-4.664-2.303-3.008-5.505.348-.674.823-2.902 1.055-4.952.233-2.05.669-4.103.97-4.562.301-.46.751-2.513 1-4.562.695-5.714 1.266-6.419 5.204-6.419 1.946 0 2.866.173 3.226.607m-248.374 5.555c-.253.304-.409.798-.346 1.096.065.309-.164.497-.533.437-.765-.125-1.629.795-1.467 1.563.063.298-.13.491-.428.428-1.049-.221-1.539.726-1.61 3.113-.07 2.321-.039 2.401.94 2.401.813 0 1.012.197 1.012 1 0 .8.2 1 1 1 .789 0 1 .203 1 .96 0 .855.207.977 1.9 1.123 2.153.185 8.1-4.724 8.1-6.687 0-.971-4.886-5.936-6.2-6.3-2.286-.633-2.933-.659-3.368-.134m94.369.57c-1.093.164-3.59 2.366-3.597 3.172-.002.277-.364.812-.804 1.189-1.304 1.116-1.164 5.776.2 6.67.55.361 1 .921 1 1.246 0 .851 3.321.809 4.035-.051.292-.353.949-.8 1.459-.994.509-.193 1.039-.67 1.176-1.058s.627-1.126 1.09-1.638c1.11-1.231 1.234-6.445.179-7.5-.731-.731-3.188-1.268-4.738-1.036m53.699.35c-.495.096-.9.424-.9.73 0 .305-.495 1.014-1.1 1.575-1.013.939-1.111 1.299-1.237 4.541l-.137 3.521 1.41 1.075c1.422 1.084 3.591 1.442 4.068.67.137-.223.942-.759 1.788-1.19 1.736-.886 4.336-8.804 2.891-8.804-.223 0-.593-.54-.823-1.2-.427-1.225-2.614-1.562-5.96-.918m29.4-.027c-.385.112-.7.452-.7.754 0 .303-.295.716-.656.918-.712.399-2.544 4.544-2.544 5.757 0 3.351 4.173 6.341 6.3 4.515.385-.33 1.481-1.265 2.435-2.078l1.735-1.477-.135-3.89c-.074-2.139-.277-4.031-.45-4.204-.368-.366-4.958-.593-5.985-.295m138.5.424c-1.217.437-4.8 4.297-4.8 5.171 0 1.663 4.543 5.64 7.033 6.157 2.365.491 2.967.328 2.967-.803 0-.472.333-.796.9-.876 1.289-.183 1.614-6.425.368-7.091-.419-.225-.876-.295-1.015-.156-.139.139-.253-.131-.253-.6 0-.855-1.273-1.875-1.747-1.4-.139.139-.253.042-.253-.214 0-.472-2.071-.594-3.2-.188m-306.787 9.652c-4.11 4.263-4.096 4.24-3.794 6.258.235 1.566.401 1.811 1.226 1.811.752 0 .955.213.955 1 0 .8.2 1 1 1s1 .2 1 1 .2 1 1 1 1 .2 1 1 .2 1 1 1 1 .2 1 1 .2 1 1 1 1 .2 1 1 .2 1 1 1 1 .2 1 1 .2 1 1 1 1 .2 1 1 .2 1 1 1 1 .2 1 1 .2 1 1 1 1 .2 1 1 .2 1 1 1 1 .2 1 1 .2 1 1 1 1 .2 1 1 .2 1 1 1 1 .2 1 1 .2 1 1 1 1 .2 1 1 .2 1 1 1 1 .2 1 1 .2 1 1 1 1 .2 1 1 .2 1 1 1 1 .2 1 1 .2 1 1 1 1 .2 1 1 .2 1 1 1 1 .2 1 1 .2 1 1 1 1 .2 1 1 .2 1 1 1 1 .2 1 1 .2 1 1 1 1 .2 1 1 .2 1 1 1 1 .2 1 1 .2 1 1 1 1 .2 1 1 .2 1 1 1 1 .2 1 1 .2 1 1 1 1 .2 1 1 .2 1 1 1 1 .2 1 1 .2 1 1 1 1 .2 1 1 .2 1 1 1 1 .2 1 1 .2 1 1 1 1 .2 1 1 .2 1 1 1 1 .2 1 1 .2 1 1 1 1 .2 1 1 .2 1 1 1 1 .2 1 1 .2 1 1 1 1 .2 1 1 .2 1 1 1 1 .2 1 1 .2 1 1 1 1 .2 1 1 .2 1 1 1 1 .2 1 1 .2 1 1 1 1 .2 1 1 .2 1 1 1 1 .2 1 1 .2 1 1 1 1 .2 1 1 .2 1 1 1 1 .2 1 1 .2 1 1 1 1 .2 1 1 .2 1 1 1 1 .2 1 1 .2 1 1 1 1 .2 1 1 .2 1 1 1 1 .2 1 1 .2 1 1 1 1 .2 1 1 .2 1 1 1 1 .2 1 1 .2 1 1 1 1 .2 1 1 .2 1 1 1 1 .2 1 1 .2 1 1 1 1 .2 1 1 .2 1 1 1 1 .2 1 1 .2 1 1 1 1 .2 1 1 .2 1 1 1 1 .2 1 1 .2 1 1 1 1 .2 1 1 .2 1 1 1 1 .2 1 1 .2 1 1 1 1 .2 1 1 .2 1 1 1 1 .2 1 1 .2 1 1 1 1 .2 1 1 .2 1 1 1 1 .2 1 1 .2 1 1 1 1 .2 1 1 .2 1 1 1 1 .2 1 1 .2 1 1 1 1 .2 1 1 .2 1 1 1 1 .2 1 1 .2 1 1 1 1 .2 1 1 .2 1 1 1 1 .2 1 1 .2 1 1 1 1 .2 1 1 .2 1 1 1 1 .2 1 1 .2 1 1 1 1 .2 1 1 .2 1 1 1 1 .2 1 1 .2 1 1 1 1 .2 1 1 .2 1 1 1 1 .2 1 1 .2 1 1 1 1 .2 1 1 .2 1 1 1 1 .2 1 1 .2 1 1 1 1 .2 1 1 .2 1 1 1 1 .2 1 1 .2 1 1 1 1 .2 1 1 .2 1 1 1c.805 0 1 .199 1 1.018 0 1.468 5.315 1.378 5.525-.093a1.13 1.13 0 011-1 1.133 1.133 0 001-1 1.13 1.13 0 011-1 1.133 1.133 0 001-1 1.13 1.13 0 011-1 1.133 1.133 0 001-1 1.13 1.13 0 011-1 1.133 1.133 0 001-1 1.13 1.13 0 011-1 1.133 1.133 0 001-1 1.13 1.13 0 011-1 1.133 1.133 0 001-1 1.13 1.13 0 011-1 1.133 1.133 0 001-1 1.13 1.13 0 011-1 1.133 1.133 0 001-1 1.13 1.13 0 011-1 1.133 1.133 0 001-1 1.13 1.13 0 011-1 1.133 1.133 0 001-1 1.13 1.13 0 011-1 1.133 1.133 0 001-1 1.13 1.13 0 011-1 1.133 1.133 0 001-1 1.13 1.13 0 011-1 1.133 1.133 0 001-1 1.13 1.13 0 011-1 1.133 1.133 0 001-1 1.13 1.13 0 011-1 1.133 1.133 0 001-1 1.13 1.13 0 011-1 1.133 1.133 0 001-1 1.13 1.13 0 011-1 1.133 1.133 0 001-1 1.13 1.13 0 011-1 1.133 1.133 0 001-1 1.13 1.13 0 011-1 1.133 1.133 0 001-1 1.13 1.13 0 011-1 1.133 1.133 0 001-1 1.13 1.13 0 011-1 1.133 1.133 0 001-1 1.13 1.13 0 011-1 1.133 1.133 0 001-1 1.13 1.13 0 011-1 1.133 1.133 0 001-1 1.13 1.13 0 011-1 1.133 1.133 0 001-1 1.13 1.13 0 011-1 1.133 1.133 0 001-1 1.13 1.13 0 011-1 1.133 1.133 0 001-1 1.13 1.13 0 011-1 1.133 1.133 0 001-1 1.13 1.13 0 011-1 1.133 1.133 0 001-1 1.13 1.13 0 011-1 1.133 1.133 0 001-1 1.13 1.13 0 011-1 1.133 1.133 0 001-1 1.13 1.13 0 011-1 1.133 1.133 0 001-1 1.13 1.13 0 011-1 1.133 1.133 0 001-1 1.13 1.13 0 011-1 1.133 1.133 0 001-1 1.13 1.13 0 011-1 1.133 1.133 0 001-1 1.13 1.13 0 011-1 1.133 1.133 0 001-1 1.13 1.13 0 011-1 1.133 1.133 0 001-1 1.13 1.13 0 011-1 1.133 1.133 0 001-1 1.13 1.13 0 011-1 1.133 1.133 0 001-1 1.13 1.13 0 011-1 1.133 1.133 0 001-1 1.13 1.13 0 011-1 1.133 1.133 0 001-1 1.13 1.13 0 011-1 1.133 1.133 0 001-1 1.13 1.13 0 011-1 1.133 1.133 0 001-1 1.13 1.13 0 011-1 1.133 1.133 0 001-1 1.13 1.13 0 011-1 1.133 1.133 0 001-1 1.13 1.13 0 011-1 1.133 1.133 0 001-1 1.13 1.13 0 011-1 1.133 1.133 0 001-1 1.13 1.13 0 011-1 1.133 1.133 0 001-1 1.13 1.13 0 011-1 1.133 1.133 0 001-1 1.13 1.13 0 011-1 1.133 1.133 0 001-1 1.13 1.13 0 011-1 1.133 1.133 0 001-1 1.13 1.13 0 011-1 1.133 1.133 0 001-1 1.13 1.13 0 011-1 1.133 1.133 0 001-1 1.13 1.13 0 011-1 1.133 1.133 0 001-1 1.13 1.13 0 011-1 1.133 1.133 0 001-1 1.13 1.13 0 011-1 1.133 1.133 0 001-1 1.13 1.13 0 011-1 1.133 1.133 0 001-1 1.13 1.13 0 011-1 1.133 1.133 0 001-1 1.13 1.13 0 011-1 1.133 1.133 0 001-1 1.13 1.13 0 011-1 1.133 1.133 0 001-1 1.13 1.13 0 011-1 1.133 1.133 0 001-1 1.13 1.13 0 011-1 1.133 1.133 0 001-1 1.13 1.13 0 011-1 1.133 1.133 0 001-1 1.13 1.13 0 011-1 1.133 1.133 0 001-1 1.13 1.13 0 011-1 1.133 1.133 0 001-1 1.13 1.13 0 011-1 1.133 1.133 0 001-1 1.13 1.13 0 011-1 1.133 1.133 0 001-1 1.13 1.13 0 011-1 1.133 1.133 0 001-1 1.13 1.13 0 011-1 1.133 1.133 0 001-1 1.13 1.13 0 011-1 1.133 1.133 0 001-1 1.13 1.13 0 011-1 1.133 1.133 0 001-1 1.13 1.13 0 011-1 1.133 1.133 0 001-1 1.13 1.13 0 011-1 1.133 1.133 0 001-1 1.13 1.13 0 011-1 1.133 1.133 0 001-1 1.13 1.13 0 011-1 1.133 1.133 0 001-1 1.13 1.13 0 011-1 1.133 1.133 0 001-1 1.13 1.13 0 011-1c1.115-.159 1.423-2.891.522-4.634-1.115-2.157-5.027-5.711-6.013-5.464-.486.122-33.812 33.151-74.059 73.398-58.273 58.274-73.378 73.175-74.174 73.175-.796 0-15.917-14.909-74.201-73.162-40.26-40.239-73.56-73.255-74-73.369-.591-.152-1.37.385-2.987 2.062" fill="#d3e383"/><path id="path1" d="M197.2 20.2c0 .8-.2 1-1 1s-1 .2-1 1-.2 1-1 1-1 .2-1 1-.2 1-1 1-1 .2-1 1-.2 1-1 1-1 .2-1 1-.2 1-1 1-1 .2-1 1-.2 1-1 1-1 .2-1 1-.2 1-1 1-1 .2-1 1-.2 1-1 1-1 .2-1 1-.2 1-1 1-1 .2-1 1-.2 1-1 1-1 .2-1 1-.2 1-1 1-1 .2-1 1-.2 1-1 1-1 .2-1 1-.2 1-1 1-1 .2-1 1-.2 1-1 1-1 .2-1 1-.2 1-1 1-1 .2-1 1-.2 1-1 1-1 .2-1 1-.2 1-1 1-1 .2-1 1-.2 1-1 1-1 .2-1 1-.2 1-1 1-1 .2-1 1-.2 1-1 1-1 .2-1 1-.2 1-1 1-1 .2-1 1-.2 1-1 1-1 .2-1 1-.2 1-1 1-1 .2-1 1-.2 1-1 1-1 .2-1 1-.2 1-1 1-1 .2-1 1-.2 1-1 1-1 .2-1 1-.2 1-1 1-1 .2-1 1-.2 1-1 1-1 .2-1 1-.2 1-1 1-1 .2-1 1-.2 1-1 1-1 .2-1 1-.2 1-1 1-1 .2-1 1-.2 1-1 1-1 .2-1 1-.2 1-1 1-1 .2-1 1-.2 1-1 1-1 .2-1 1-.2 1-1 1-1 .2-1 1-.2 1-1 1-1 .2-1 1-.2 1-1 1-1 .2-1 1-.2 1-1 1-1 .2-1 1-.2 1-1 1-1 .2-1 1-.2 1-1 1-1 .2-1 1-.2 1-1 1-1 .2-1 1-.2 1-1 1-1 .2-1 1-.2 1-1 1-1 .2-1 1-.2 1-1 1-1 .2-1 1-.2 1-1 1-1 .2-1 1-.2 1-1 1-1 .2-1 1-.2 1-1 1-1 .2-1 1-.2 1-1 1-1 .2-1 1-.2 1-1 1-1 .2-1 1-.2 1-1 1-1 .2-1 1-.2 1-1 1-1 .2-1 1-.2 1-1 1-1 .2-1 1-.2 1-1 1-1 .2-1 1-.2 1-1 1-1 .2-1 1-.2 1-1 1-1 .2-1 1-.2 1-1 1-1 .2-1 1-.2 1-1 1-1 .2-1 1-.2 1-1 1-1 .2-1 1-.2 1-1 1-1 .2-1 1-.2 1-1 1-1 .2-1 1-.2 1-1 1-1 .2-1 1-.2 1-1 1-1 .2-1 1-.2 1-1 1-1 .2-1 1-.2 1-1 1-1 .2-1 1-.2 1-1 1-1 .2-1 1-.2 1-1 1-1 .2-1 1-.2 1-1 1-1 .2-1 1-.2 1-1 1-1 .2-1 1-.2 1-1 1-1 .2-1 1-.2 1-1 1-1 .2-1 1-.2 1-1 1-1 .2-1 1-.2 1-1 1-1 .2-1 1-.2 1-1 1-1 .2-1 1-.2 1-1 1-1 .2-1 1-.2 1-1 1-1 .2-1 1-.2 1-1 1-1 .2-1 1-.2 1-1 1-1 .2-1 1-.2 1-1 1-1 .2-1 1-.2 1-1 1-1 .2-1 1-.2 1-1 1-1 .2-1 1-.2 1-1 1-1 .2-1 1c0 .806-.198 1-1.023 1-1.457 0-1.341 3.32.123 3.528.651.092.9.396.9 1.1 0 .77.208.972 1 .972.8 0 1 .2 1 1s.2 1 1 1 1 .2 1 1c0 .806.198 1 1.024 1 .58 0 .916.173.776.4-.136.22.135.4.603.4 1.858 0 7.597 4.985 7.597 6.598 0 1.261-5.657 6.701-7.069 6.799l-2.031.14c-.677.047-.9.311-.9 1.063 0 .8-.2 1-1 1s-1 .2-1 1-.2 1-1 1c-.792 0-1 .202-1 .972 0 .704-.249 1.008-.9 1.1-1.343.191-1.343 3.265 0 3.456.651.092.9.396.9 1.1 0 .77.208.972 1 .972.8 0 1 .2 1 1s.2 1 1 1 1 .2 1 1 .2 1 1 1 1 .2 1 1 .2 1 1 1 1 .2 1 1 .2 1 1 1 1 .2 1 1 .2 1 1 1 1 .2 1 1 .2 1 1 1 1 .2 1 1 .2 1 1 1 1 .2 1 1 .2 1 1 1 1 .2 1 1 .2 1 1 1 1 .2 1 1 .2 1 1 1 1 .2 1 1 .2 1 1 1 1 .2 1 1 .2 1 1 1 1 .2 1 1 .2 1 1 1 1 .2 1 1 .2 1 1 1 1 .2 1 1 .2 1 1 1 1 .2 1 1 .2 1 1 1 1 .2 1 1 .2 1 1 1 1 .2 1 1 .2 1 1 1 1 .2 1 1 .2 1 1 1 1 .2 1 1 .2 1 1 1 1 .2 1 1 .2 1 1 1 1 .2 1 1 .2 1 1 1 1 .2 1 1 .2 1 1 1 1 .2 1 1 .2 1 1 1 1 .2 1 1 .2 1 1 1 1 .2 1 1 .2 1 1 1 1 .2 1 1 .2 1 1 1 1 .2 1 1 .2 1 1 1 1 .2 1 1 .2 1 1 1 1 .2 1 1 .2 1 1 1 1 .2 1 1 .2 1 1 1 1 .2 1 1 .2 1 1 1 1 .2 1 1 .2 1 1 1 1 .2 1 1 .2 1 1 1 1 .2 1 1 .2 1 1 1 1 .2 1 1 .2 1 1 1 1 .2 1 1 .2 1 1 1 1 .2 1 1 .2 1 1 1 1 .2 1 1 .2 1 1 1 1 .2 1 1 .2 1 1 1 1 .2 1 1 .2 1 1 1 1 .2 1 1 .2 1 1 1 1 .2 1 1 .2 1 1 1 1 .2 1 1 .2 1 1 1 1 .2 1 1 .2 1 1 1 1 .2 1 1 .2 1 1 1 1 .2 1 1 .2 1 1 1 1 .2 1 1 .2 1 1 1 1 .2 1 1 .2 1 1 1 1 .2 1 1 .2 1 1 1 1 .2 1 1 .2 1 1 1 1 .2 1 1 .2 1 1 1 1 .2 1 1 .2 1 1 1 1 .2 1 1 .2 1 1 1 1 .2 1 1 .2 1 1 1 1 .2 1 1 .2 1 1 1 1 .2 1 1 .2 1 1 1 1 .2 1 1 .2 1 1 1 1 .2 1 1 .2 1 1 1 1 .2 1 1 .2 1 1 1 1 .2 1 1 .2 1 1 1 1 .2 1 1 .2 1 1 1 1 .2 1 1 .2 1 1 1 1 .2 1 1 .2 1 1 1 1 .2 1 1 .2 1 1 1 1 .2 1 1 .2 1 1 1 1 .2 1 1 .2 1 1 1 1 .2 1 1 .2 1 1 1 1 .2 1 1 .2 1 1 1 1 .2 1 1 .2 1 1 1 1 .2 1 1 .2 1 1 1 1 .2 1 1 .2 1 1 1 1 .2 1 1 .2 1 1 1 1 .2 1 1 .2 1 1 1 1 .2 1 1 .2 1 1 1 1 .2 1 1 .2 1 1 1 1 .2 1 1 .2 1 1 1 1 .2 1 1 .2 1 1 1 1 .2 1 1 .2 1 1 1 1 .2 1 1 .2 1 1 1 1 .2 1 1c0 .856.182 1 1.269 1 .697 0 1.568.272 1.936.604.609.552 2.97-1.698 27.27-26 14.631-14.632 26.789-26.604 27.017-26.604.228 0 .512-.373.632-.83.119-.456.573-.923 1.009-1.037.436-.114.886-.564 1-1 .114-.436.564-.886 1-1 .436-.114.886-.564 1-1 .114-.436.564-.886 1-1 .436-.114.886-.564 1-1 .114-.436.564-.886 1-1 .436-.114.886-.564 1-1 .114-.436.564-.886 1-1 .436-.114.886-.564 1-1 .114-.436.564-.886 1-1 .436-.114.886-.564 1-1 .114-.436.564-.886 1-1 .436-.114.886-.564 1-1 .114-.436.564-.886 1-1 .436-.114.886-.564 1-1 .114-.436.564-.886 1-1 .436-.114.886-.564 1-1 .114-.436.564-.886 1-1 .436-.114.886-.564 1-1 .114-.436.564-.886 1-1 .436-.114.886-.564 1-1 .114-.436.564-.886 1-1 .436-.114.886-.564 1-1 .114-.436.564-.886 1-1 .436-.114.886-.564 1-1 .114-.436.564-.886 1-1 .436-.114.886-.564 1-1 .114-.436.564-.886 1-1 .436-.114.886-.564 1-1 .114-.436.564-.886 1-1 .436-.114.886-.564 1-1 .114-.436.564-.886 1-1 .436-.114.886-.564 1-1 .114-.436.564-.886 1-1 .436-.114.886-.564 1-1 .114-.436.564-.886 1-1 .436-.114.886-.564 1-1 .114-.436.564-.886 1-1 .436-.114.886-.564 1-1 .114-.436.564-.886 1-1 .436-.114.886-.564 1-1 .114-.436.564-.886 1-1 .436-.114.886-.564 1-1 .114-.436.564-.886 1-1 .436-.114.886-.564 1-1 .114-.436.581-.89 1.037-1.009.457-.12.83-.404.83-.632 0-.229 14.319-14.732 31.82-32.231 31.201-31.196 31.817-31.842 31.7-33.238-.095-1.127-.307-1.45-1.02-1.551-.651-.092-.9-.396-.9-1.1 0-.77-.208-.972-1-.972-.8 0-1-.2-1-1s-.2-1-1-1-1-.2-1-1-.2-1-1-1c-.55 0-1-.157-1-.349 0-.192-.691-.459-1.535-.594-1.869-.299-6.465-4.57-6.465-6.007 0-1.622 4.011-5.104 6.157-5.346 1.614-.182 1.843-.326 1.843-1.156 0-.745.215-.948 1-.948.8 0 1-.2 1-1s.2-1 1-1 1-.2 1-1 .2-1 1-1 1-.2 1-1 .2-1 1-1c.919 0 1-.147 1-1.8s-.081-1.8-1-1.8c-.8 0-1-.2-1-1s-.2-1-1-1-1-.2-1-1-.2-1-1-1-1-.2-1-1-.2-1-1-1-1-.2-1-1-.2-1-1-1-1-.2-1-1-.2-1-1-1-1-.2-1-1-.2-1-1-1-1-.2-1-1-.2-1-1-1-1-.2-1-1-.2-1-1-1-1-.2-1-1-.2-1-1-1-1-.2-1-1-.2-1-1-1-1-.2-1-1-.2-1-1-1-1-.2-1-1-.2-1-1-1-1-.2-1-1-.2-1-1-1-1-.2-1-1-.2-1-1-1-1-.2-1-1-.2-1-1-1-1-.2-1-1-.2-1-1-1-1-.2-1-1-.2-1-1-1-1-.2-1-1-.2-1-1-1-1-.2-1-1-.2-1-1-1-1-.2-1-1-.2-1-1-1-1-.2-1-1-.2-1-1-1-1-.2-1-1-.2-1-1-1-1-.2-1-1-.2-1-1-1-1-.2-1-1-.2-1-1-1-1-.2-1-1-.2-1-1-1-1-.2-1-1-.2-1-1-1-1-.2-1-1-.2-1-1-1-1-.2-1-1-.2-1-1-1-1-.2-1-1-.2-1-1-1-1-.2-1-1-.2-1-1-1-1-.2-1-1c0-.733-.213-1-.8-1-.587 0-.8-.267-.8-1 0-.8-.2-1-1-1s-1-.2-1-1-.2-1-1-1-1-.2-1-1-.2-1-1-1-1-.2-1-1-.2-1-1-1-1-.2-1-1-.2-1-1-1-1-.2-1-1-.2-1-1-1-1-.2-1-1-.2-1-1-1-1-.2-1-1-.2-1-1-1-1-.2-1-1-.2-1-1-1-1-.2-1-1-.2-1-1-1-1-.2-1-1-.2-1-1-1-1-.2-1-1-.2-1-1-1-1-.2-1-1-.2-1-1-1-1-.2-1-1-.2-1-1-1-1-.2-1-1-.2-1-1-1-1-.2-1-1-.2-1-1-1-1-.2-1-1-.2-1-1-1-1-.2-1-1-.2-1-1-1-1-.2-1-1-.2-1-1-1-1-.2-1-1-.2-1-1-1-1-.2-1-1-.2-1-1-1-1-.2-1-1-.2-1-1-1-1-.2-1-1-.2-1-1-1-1-.2-1-1-.2-1-1-1-1-.2-1-1c0-.844-.187-1-1.2-1s-1.2-.156-1.2-1c0-.8-.2-1-1-1s-1-.2-1-1-.2-1-1-1-1-.2-1-1-.2-1-1-1-1-.2-1-1-.2-1-1-1-1-.2-1-1-.2-1-1-1-1-.2-1-1-.2-1-1-1-1-.2-1-1-.2-1-1-1-1-.2-1-1-.2-1-1-1-1-.2-1-1-.2-1-1-1-1-.2-1-1-.2-1-1-1-1-.2-1-1-.2-1-1-1-1-.2-1-1-.2-1-1-1-1-.2-1-1-.2-1-1-1-1-.2-1-1-.2-1-1-1-1-.2-1-1-.2-1-1-1-1-.2-1-1-.2-1-1-1-1-.2-1-1-.2-1-1-1-1-.2-1-1-.2-1-1-1-1-.2-1-1-.2-1-1-1-1-.2-1-1-.2-1-1-1-1-.2-1-1-.2-1-1-1-1-.2-1-1-.2-1-1-1-1-.2-1-1-.2-1-1-1-1-.2-1-1-.2-1-1-1-1-.2-1-1-.2-1-1-1-1-.2-1-1c0-.971-.08-1-2.8-1-2.72 0-2.8.029-2.8 1m4.235 7.597c.138.549.397.907.575.797.443-.274 1.59.922 1.59 1.658 0 .327.165.493.368.368.476-.294 1.632.861 1.632 1.632 0 .327.165.493.368.368.476-.294 1.632.861 1.632 1.632 0 .327.165.493.368.368.476-.294 1.632.861 1.632 1.632 0 .327.165.493.368.368.476-.294 1.632.861 1.632 1.632 0 .327.165.493.368.368.476-.294 1.632.861 1.632 1.632 0 .327.165.493.368.368.476-.294 1.632.861 1.632 1.632 0 .327.165.493.368.368.476-.294 1.632.861 1.632 1.632 0 .327.165.493.368.368.476-.294 1.632.861 1.632 1.632 0 .327.165.493.368.368.476-.294 1.632.861 1.632 1.632 0 .327.165.493.368.368.476-.294 1.632.861 1.632 1.632 0 .327.165.493.368.368.476-.294 1.632.861 1.632 1.632 0 .327.165.493.368.368.476-.294 1.632.861 1.632 1.632 0 .327.165.493.368.368.476-.294 1.632.861 1.632 1.632 0 .327.165.493.368.368.476-.294 1.632.861 1.632 1.632 0 .327.165.493.368.368.476-.294 1.632.861 1.632 1.632 0 .327.165.493.368.368.476-.294 1.632.861 1.632 1.632 0 .327.165.493.368.368.476-.294 1.632.861 1.632 1.632 0 .327.165.493.368.368.476-.294 1.632.861 1.632 1.632 0 .327.165.493.368.368.476-.294 1.632.861 1.632 1.632 0 .327.165.493.368.368.476-.294 1.632.861 1.632 1.632 0 .327.165.493.368.368.476-.294 1.632.861 1.632 1.632 0 .327.165.493.368.368.476-.294 1.632.861 1.632 1.632 0 .327.165.493.368.368.476-.294 1.632.861 1.632 1.632 0 .327.165.493.368.368.476-.294 1.632.861 1.632 1.632 0 .327.165.493.368.368.476-.294 1.632.861 1.632 1.632 0 .327.165.493.368.368.476-.294 1.632.861 1.632 1.632 0 .327.165.493.368.368.476-.294 1.632.861 1.632 1.632 0 .327.165.493.368.368.476-.294 1.632.861 1.632 1.632 0 .327.165.493.368.368.476-.294 1.632.861 1.632 1.632 0 .327.165.493.368.368.476-.294 1.632.861 1.632 1.632 0 .327.165.493.368.368.476-.294 1.632.861 1.632 1.632 0 .327.165.493.368.368.476-.294 1.632.861 1.632 1.632 0 .327.165.493.368.368.476-.294 1.632.861 1.632 1.632 0 .327.165.493.368.368.476-.294 1.632.861 1.632 1.632 0 .327.165.493.368.368.476-.294 1.632.861 1.632 1.632 0 .327.165.493.368.368.476-.294 1.632.861 1.632 1.632 0 .327.165.493.368.368.476-.294 1.632.861 1.632 1.632 0 .327.165.493.368.368.476-.294 1.632.861 1.632 1.632 0 .327.165.493.368.368.476-.294 1.632.861 1.632 1.632 0 .327.165.493.368.368.476-.294 1.632.861 1.632 1.632 0 .327.165.493.368.368.202-.125.652.057 1 .405.347.348.632.9.632 1.227 0 .327.165.493.368.368.476-.294 1.632.861 1.632 1.632 0 .327.165.493.368.368.476-.294 1.632.861 1.632 1.632 0 .327.165.493.368.368.476-.294 1.632.861 1.632 1.632 0 .327.165.493.368.368.476-.294 1.632.861 1.632 1.632 0 .327.165.493.368.368.476-.294 1.632.861 1.632 1.632 0 .327.165.493.368.368.476-.294 1.632.861 1.632 1.632 0 .327.165.493.368.368.476-.294 1.632.861 1.632 1.632 0 .327.165.493.368.368.476-.294 1.632.861 1.632 1.632 0 .327.165.493.368.368.476-.294 1.632.861 1.632 1.632 0 .327.165.493.368.368.476-.294 1.632.861 1.632 1.632 0 .327.165.493.368.368.476-.294 1.632.861 1.632 1.632 0 .327.165.493.368.368.476-.294 1.632.861 1.632 1.632 0 .327.165.493.368.368.476-.294 1.632.861 1.632 1.632 0 .327.165.493.368.368.476-.294 1.632.861 1.632 1.632 0 .327.165.493.368.368.476-.294 1.632.861 1.632 1.632 0 .327.165.493.368.368.476-.294 1.632.861 1.632 1.632 0 .327.165.493.368.368.476-.294 1.632.861 1.632 1.632 0 .327.165.493.368.368.476-.294 1.632.861 1.632 1.632 0 .327.165.493.368.368.476-.294 1.632.861 1.632 1.632 0 .327.165.493.368.368.476-.294 1.632.861 1.632 1.632 0 .327.165.493.368.368.476-.294 1.632.861 1.632 1.632 0 .327.165.493.368.368.476-.294 1.632.861 1.632 1.632 0 .327.165.493.368.368.476-.294 1.632.861 1.632 1.632 0 .327.165.493.368.368.476-.294 1.632.861 1.632 1.632 0 .327.165.493.368.368.476-.294 1.632.861 1.632 1.632 0 .327.165.493.368.368.476-.294 1.632.861 1.632 1.632 0 .327.165.493.368.368.476-.294 1.632.861 1.632 1.632 0 .327.165.493.368.368.476-.294 1.632.861 1.632 1.632 0 .327.165.493.368.368.476-.294 1.632.861 1.632 1.632 0 .327.165.493.368.368.476-.294 1.632.861 1.632 1.632 0 .327.165.493.368.368.476-.294 1.632.861 1.632 1.632 0 .327.165.493.368.368.476-.294 1.632.861 1.632 1.632 0 .327.165.493.368.368.476-.294 1.632.861 1.632 1.632 0 .327.165.493.368.368.476-.294 1.632.861 1.632 1.632 0 .327.165.493.368.368.476-.294 1.632.861 1.632 1.632 0 .327.165.493.368.368.469-.29 1.632.856 1.632 1.609 0 .314.135.55.3.524 1.044-.165 1.467.091.797.481-.387.225-.88.3-1.096.167-.215-.133-.294.014-.173.327.283.738-.962 1.983-1.7 1.7-.313-.121-.47-.057-.347.14.482.78-.299 1.633-1.524 1.664-.691.017-1.032.122-.757.233 2.357.951-2.15 8.567-4.861 8.213-.626-.081-24.917-24.111-73.886-73.091-67.366-67.381-73.054-72.969-74.275-72.978-1.228-.008-6.498 5.168-74.288 72.961-48.408 48.411-73.273 73.007-73.878 73.08-1.916.232-6.999-5.838-6.607-7.889.099-.515.046-.854-.117-.753-.164.1-.394-.188-.513-.642s-.572-.919-1.008-1.033c-.436-.114-.886-.564-1-1-.114-.436-.613-.898-1.108-1.028l-.9-.235.908-.336c.5-.185.998-.679 1.108-1.098.109-.419.556-.855.992-.969.436-.114.886-.564 1-1 .114-.436.564-.886 1-1 .436-.114.886-.564 1-1 .114-.436.564-.886 1-1 .436-.114.886-.564 1-1 .114-.436.564-.886 1-1 .436-.114.886-.564 1-1 .114-.436.564-.886 1-1 .436-.114.886-.564 1-1 .114-.436.564-.886 1-1 .436-.114.886-.564 1-1 .114-.436.564-.886 1-1 .436-.114.886-.564 1-1 .114-.436.564-.886 1-1 .436-.114.886-.564 1-1 .114-.436.564-.886 1-1 .436-.114.886-.564 1-1 .114-.436.564-.886 1-1 .436-.114.886-.564 1-1 .114-.436.564-.886 1-1 .436-.114.886-.564 1-1 .114-.436.564-.886 1-1 .436-.114.886-.564 1-1 .114-.436.564-.886 1-1 .436-.114.886-.564 1-1 .114-.436.564-.886 1-1 .436-.114.886-.564 1-1 .114-.436.564-.886 1-1 .436-.114.886-.564 1-1 .114-.436.564-.886 1-1 .436-.114.886-.564 1-1 .114-.436.564-.886 1-1 .436-.114.886-.564 1-1 .114-.436.564-.886 1-1 .436-.114.886-.564 1-1 .114-.436.564-.886 1-1 .436-.114.886-.564 1-1 .114-.436.564-.886 1-1 .436-.114.886-.564 1-1 .114-.436.564-.886 1-1 .436-.114.886-.564 1-1 .114-.436.564-.886 1-1 .436-.114.886-.564 1-1 .114-.436.564-.886 1-1 .436-.114.886-.564 1-1 .114-.436.564-.886 1-1 .436-.114.886-.564 1-1 .114-.436.564-.886 1-1 .436-.114.886-.564 1-1 .114-.436.564-.886 1-1 .436-.114.886-.564 1-1 .114-.436.564-.886 1-1 .436-.114.886-.564 1-1 .114-.436.564-.886 1-1 .436-.114.886-.564 1-1 .114-.436.564-.886 1-1 .436-.114.886-.564 1-1 .114-.436.564-.886 1-1 .436-.114.886-.564 1-1 .114-.436.564-.886 1-1 .436-.114.886-.564 1-1 .114-.436.564-.886 1-1 .436-.114.886-.564 1-1 .114-.436.564-.886 1-1 .436-.114.886-.564 1-1 .114-.436.564-.886 1-1 .436-.114.886-.564 1-1 .114-.436.564-.886 1-1 .436-.114.886-.564 1-1 .114-.436.564-.886 1-1 .436-.114.886-.564 1-1 .114-.436.564-.886 1-1 .436-.114.886-.564 1-1 .114-.436.564-.886 1-1 .436-.114.886-.564 1-1 .114-.436.564-.886 1-1 .436-.114.886-.564 1-1 .114-.436.564-.886 1-1 .436-.114.886-.564 1-1 .114-.436.564-.886 1-1 .436-.114.886-.564 1-1 .114-.436.564-.886 1-1 .436-.114.886-.564 1-1 .114-.436.564-.886 1-1 .436-.114.886-.564 1-1 .114-.436.564-.886 1-1 .436-.114.886-.564 1-1 .114-.436.564-.886 1-1 .436-.114.886-.564 1-1 .114-.436.564-.886 1-1 .436-.114.886-.564 1-1 .114-.436.564-.886 1-1 .436-.114.886-.564 1-1 .114-.436.564-.886 1-1 .436-.114.886-.564 1-1 .114-.436.564-.886 1-1 .436-.114.886-.564 1-1 .114-.436.564-.886 1-1 .436-.114.886-.564 1-1 .114-.436.564-.886 1-1 .436-.114.886-.564 1-1 .114-.436.564-.886 1-1 .436-.114.886-.564 1-1 .114-.436.564-.886 1-1 .436-.114.886-.564 1-1 .114-.436.564-.886 1-1 .436-.114.886-.564 1-1 .114-.436.564-.886 1-1 .436-.114.886-.564 1-1 .114-.436.564-.886 1-1 .436-.114.886-.564 1-1 .114-.436.564-.886 1-1 .436-.114.886-.564 1-1 .114-.436.564-.886 1-1 .436-.114.886-.564 1-1 .114-.436.564-.886 1-1 .436-.114.886-.564 1-1 .114-.436.564-.886 1-1 .436-.114.886-.564 1-1 .114-.436.564-.886 1-1 .436-.114.886-.564 1-1 .114-.436.564-.886 1-1 .436-.114.886-.564 1-1 .114-.436.564-.886 1-1 .436-.114.886-.564 1-1 .114-.436.564-.886 1-1 .436-.114.886-.564 1-1 .114-.436.564-.886 1-1 .436-.114.886-.564 1-1 .114-.436.564-.886 1-1 .436-.114.886-.564 1-1 .114-.436.564-.886 1-1 .436-.114.886-.564 1-1 .114-.436.564-.886 1-1 .436-.114.886-.564 1-1 .114-.436.564-.886 1-1 .436-.114.886-.564 1-1 .114-.436.564-.886 1-1 .436-.114.886-.564 1-1 .114-.436.564-.886 1-1 .436-.114.886-.564 1-1 .114-.436.564-.886 1-1 .436-.114.886-.564 1-1 .114-.436.564-.886 1-1 .436-.114.886-.564 1-1 .114-.436.564-.886 1-1 .436-.114.886-.564 1-1 .114-.436.564-.886 1-1 .436-.114.886-.564 1-1 .114-.436.564-.886 1-1 .436-.114.886-.564 1-1 .114-.436.564-.886 1-1 .436-.114.886-.564 1-1 .114-.436.564-.886 1-1 .436-.114.89-.581 1.009-1.037.335-1.281 2.428-1.154 2.759.167m71.915 98.872c43.174 43.174 72.368 72.662 72.514 73.245C346.178 201.162 201.678 346 200.12 346 198.791 346 54.4 201.529 54.4 200.2c0-1.437 144.148-145.703 145.641-145.76.87-.033 12.875 11.795 73.309 72.229m-42.944-7.846c-.766.427-1.733.777-2.148.777-2.62 0-9.887 6.395-13.858 12.194a53.606 53.606 0 01-1.874 2.56c-.481.605-.992 1.57-1.136 2.144-.144.574-.498 1.135-.786 1.245-.288.111-.748.889-1.022 1.729-.274.84-.812 1.931-1.195 2.425-.383.493-.812 1.51-.952 2.259-.141.75-.516 1.579-.833 1.842-.317.264-.787 1.545-1.043 2.847l-.466 2.368-1.105-1.507c-.609-.828-1.319-2.298-1.579-3.267-.26-.968-.818-2.405-1.24-3.192-.422-.788-.877-2.014-1.01-2.725-.134-.712-.485-1.494-.78-1.74-.296-.245-.753-1.107-1.017-1.914-.263-.807-.812-1.897-1.22-2.422-.408-.525-.745-1.155-.749-1.4-.01-.619-2.26-4.008-5.593-8.426-2.222-2.945-5.272-4.99-6.242-4.185-.509.422-.491.594.136 1.325 1.066 1.243 2.289 3.061 3.265 4.852 2.681 4.924 3.685 6.933 4.091 8.188.25.77.612 1.599.804 1.843.344.437 1.463 3.441 2.59 6.957.317.99.927 2.88 1.356 4.2.428 1.32.884 3.21 1.014 4.2.129.99.606 3.33 1.059 5.2.74 3.056.796 4.109.545 10.4-.387 9.716-.542 11.485-1.223 13.987-.327 1.203-.597 2.733-.599 3.4-.014 3.821-1.488 5.608-2.963 3.591-1.233-1.687-8.587-1.638-10.619.072-.621.522-1.245.95-1.385.95-.384 0-3.029 2.722-3.029 3.117 0 .189-.45.766-1 1.283-.55.517-1 1.226-1 1.576 0 .35-.401 1.353-.891 2.23-1.158 2.071-1.327 8.432-.256 9.651.359.409.789 1.193.955 1.743.362 1.194 2.801 3.6 3.649 3.6.33 0 .87.27 1.2.6.904.904 4.549.916 5.949.021.443-.284 1.397-.646 2.119-.805.722-.158 1.528-.632 1.79-1.052.564-.903 1.485-1.013 1.485-.178 0 .888 2.815 2.614 4.264 2.614 2.624 0 4.572-3.749 3.558-6.849-.581-1.777-.583-2.067-.015-3.164.343-.665.809-2.779 1.035-4.698.226-1.919.677-3.981 1.002-4.582.326-.601.774-2.761.995-4.8.221-2.039.688-4.228 1.038-4.864.425-.773.752-2.943.986-6.535.25-3.848.518-5.547.943-5.971.327-.327.594-.841.594-1.144 0-2.876.983-10.9 1.416-11.561.3-.458.752-2.183 1.005-3.833.252-1.649.711-3.284 1.02-3.632.309-.348.755-1.679.991-2.958.237-1.279.759-2.794 1.162-3.367.402-.573.843-1.699.979-2.502.137-.803.512-1.679.835-1.946.322-.268.78-1.207 1.017-2.087.237-.881.778-1.973 1.203-2.429.425-.456.772-1.04.772-1.298 0-.259.54-1.149 1.2-1.98.66-.831 1.2-1.691 1.2-1.913 0-.222.371-.782.824-1.245.453-.463 1.891-1.967 3.197-3.342s2.524-2.5 2.707-2.5c.183 0 .747-.441 1.253-.979.505-.539 1.418-1.089 2.028-1.223.609-.134 1.418-.586 1.798-1.006.379-.419 1.343-.972 2.141-1.229 2.193-.706 2.683-1.205 1.812-1.842-1.062-.776-4.525-.606-6.154.302m4.394-.038c1.069.326.803.528-1.3.989-.616.135-1.1.511-1.1.853 0 .337-.69.921-1.533 1.298-1.474.661-6.862 4.772-6.872 5.245-.003.126-.678.957-1.5 1.846-1.294 1.398-3.118 3.972-4.808 6.784-1.057 1.758-3.687 7.32-3.687 7.797 0 .28-.336 1.07-.746 1.756-.411.686-.964 2.145-1.23 3.242s-.629 2.177-.807 2.4c-.178.223-.623 1.738-.989 3.366-.366 1.629-.834 3.277-1.041 3.663-.206.385-.645 2.499-.975 4.697-.33 2.198-.792 4.501-1.027 5.119-.235.617-.669 4.123-.965 7.79-.296 3.668-.717 7.007-.937 7.419-.22.413-.696 2.623-1.059 4.91-.363 2.288-.829 4.476-1.036 4.863-.207.386-.629 2.385-.939 4.44-.31 2.056-.865 4.658-1.234 5.783-.513 1.564-.589 2.506-.322 4 .985 5.514-2.966 8.174-6.469 4.356L193 210.066l-1.084.934c-3.254 2.804-9.267 2.826-12.256.046-9.768-9.081 4.464-29.207 15.34-21.694 2.329 1.609 2.254 1.685 2.975-2.969.254-1.64.731-3.908 1.059-5.039.328-1.13.57-2.66.536-3.4-.093-2.07.746-8.315 1.424-10.6a50.613 50.613 0 001.011-4.196c.397-2.124 1.485-6.056 2.641-9.548.328-.99.852-2.699 1.165-3.797.312-1.099.829-2.539 1.147-3.2.319-.662 1.256-2.643 2.082-4.403 3.625-7.722 8.875-14.961 13.31-18.349 2.907-2.223 5.719-3.847 6.685-3.865.421-.007 1.485-.361 2.365-.786 1.746-.844 1.925-.865 3.4-.415m49.289 59.083c-1.787.719-2.858 5.4-1.537 6.721 2.686 2.685 7.418.585 7.752-3.44.262-3.152-2.676-4.703-6.215-3.281m5.166.766c.769.475.165 4.081-.867 5.179-1.16 1.234-3.83 1.367-5.199.258l-.901-.729.72-2.171c1.001-3.018 3.697-4.113 6.247-2.537m-199.317.668c-1.537 1.299-1.873 2.193-2.325 6.186-.223 1.965-.683 4.131-1.024 4.813-.34.682-.791 2.76-1.002 4.617-.211 1.857-.665 4.049-1.008 4.87-.343.822-.794 2.985-1.001 4.805-.206 1.821-.645 3.828-.974 4.459-1.352 2.593-.379 4.204 2.689 4.45 3.52.283 4.775-.871 5.347-4.914.248-1.754.737-3.908 1.085-4.788.349-.88.749-2.996.889-4.703l.255-3.103 1.15.82c1.149.818 1.263 1.153 1.777 5.211.333 2.633 2.448 5.741 4.007 5.888 1.323.125 4.308-2.37 4.837-4.042.151-.479.609-1.106 1.017-1.394.409-.287.75-.737.759-1 .009-.262.549-1.1 1.2-1.862.651-.762 1.184-1.707 1.184-2.1 0-.445.298-.715.789-.715.546 0 .904-.4 1.163-1.3l.376-1.3.036 1.239c.02.681-.244 1.8-.587 2.487-.343.687-.787 2.836-.988 4.776-.201 1.939-.627 4.06-.947 4.712-1.869 3.802-.827 6.186 2.702 6.186 3.443 0 4.615-1.288 5.098-5.6.21-1.87.641-3.87.959-4.444.318-.575.788-2.824 1.045-5 .256-2.176.714-4.334 1.017-4.796.303-.462.739-2.442.97-4.4.23-1.958.671-4.026.978-4.597 1.017-1.884 1.149-4.076.31-5.113-1.595-1.969-7.18-1.457-8.329.765-.337.652-.766 1.185-.954 1.185-.187 0-.565.54-.838 1.2-.273.66-.627 1.2-.786 1.2-.158 0-.631.675-1.051 1.5-.42.825-1.078 1.735-1.463 2.023-.385.287-.7.713-.7.947 0 .233-.54 1.039-1.2 1.791-.66.752-1.2 1.622-1.2 1.933 0 .311-.245.71-.543.886-.299.176-.804.824-1.122 1.439l-.578 1.12-1.047-.824c-.865-.68-1.096-1.278-1.326-3.428-.154-1.432-.607-3.247-1.007-4.033-.401-.786-.852-2.447-1.003-3.691-.575-4.746-5.337-7.15-8.636-4.361m6.377.888c.918.773 1.281 1.542 1.652 3.5.261 1.381.822 3.59 1.247 4.91a58.889 58.889 0 011.279 4.775c.678 3.177 2.133 3.792 3.591 1.516a147.955 147.955 0 013.916-5.786c.55-.77 1.84-2.639 2.866-4.153 3.34-4.925 3.846-5.372 6.334-5.594 3.997-.357 4.701.617 3.642 5.042-.434 1.81-1.107 5.075-2.271 11-.345 1.76-.965 4.46-1.377 6-.412 1.54-.945 4.131-1.184 5.759-.475 3.224-.544 3.413-1.739 4.741-1.243 1.381-5.205 1.167-5.673-.306-.126-.396.138-2.121.587-3.832.448-1.712.815-3.491.815-3.953 0-.463.291-1.914.647-3.225 2.246-8.277 1.26-8.747-3.324-1.584-6.973 10.896-9.403 10.763-11.702-.64-.313-1.553-.798-2.572-1.584-3.324l-1.132-1.085-.493 3.325c-.271 1.828-.811 4.404-1.2 5.724-.389 1.32-.828 3.3-.975 4.4-.502 3.757-.672 4.197-1.85 4.807-3.027 1.565-5.965.201-5.223-2.424.246-.871.63-2.843.854-4.383.223-1.54.666-3.7.984-4.8.545-1.884 1.709-7.27 2.638-12.2 1.565-8.311 2.086-9.2 5.399-9.2 1.65 0 2.351.212 3.276.99M133 187.594c-2.663.392-9.347 5.111-9.388 6.628-.007.233-.448 1.014-.981 1.736-3.191 4.325-1.177 14.779 3.169 16.451.66.254 1.722.742 2.36 1.085 1.428.766 5.972.765 7.189-.003.468-.295 1.587-.75 2.486-1.01.899-.261 1.962-.836 2.362-1.278.4-.441.885-.803 1.078-.803.476 0 3.125-2.676 3.125-3.156 0-.21.433-.897.962-1.526.573-.681 1.079-1.948 1.251-3.131.158-1.093.42-2.167.581-2.387.667-.909.788-3.109.228-4.141-.316-.583-.684-1.738-.818-2.568-.139-.864-.577-1.717-1.024-1.996-.429-.268-.78-.708-.78-.977s-.405-.706-.9-.969c-.495-.264-1.095-.744-1.334-1.068-.786-1.066-5.425-1.496-9.566-.887m32.13-.054c-1.538.179-2.579.554-3.225 1.161l-.953.896-1.354-.998c-4.026-2.971-7.437-1.029-8.015 4.564-.209 2.019-.663 4.219-1.01 4.889-.346.669-.794 2.687-.996 4.483-.202 1.796-.723 4.255-1.159 5.465-1.004 2.79-1.003 3.257.011 4.546 1.285 1.634 4.604 1.537 6.286-.184 1.252-1.281 1.463-1.975 1.929-6.362.152-1.43.505-2.96.785-3.4.28-.44.723-1.909.985-3.265.363-1.88.663-2.514 1.261-2.67.431-.113.877-.561.991-.995.151-.578.682-.861 1.975-1.055 2.661-.399 3.36-.043 3.356 1.712-.007 2.986-.832 8.581-1.439 9.754-2.074 4.011-.974 7.524 2.351 7.51 3.508-.015 4.938-2.062 5.566-7.969.2-1.882.667-3.962 1.039-4.622.493-.878.713-2.442.82-5.834l.146-4.634-1.34-1.454c-1.508-1.638-3.642-2.047-8.01-1.538m51.27.037c-2.973.445-7.389 4.132-9.132 7.623-.275.55-.767 1.45-1.094 2-1.263 2.123-.626 10.659.955 12.8 2.418 3.275 8.421 5.255 10.428 3.439.388-.352.976-.639 1.307-.639.33 0 1.441-.426 2.468-.946 1.173-.593 1.868-.769 1.868-.472 0 2.037 4.429 3.243 6.228 1.696 1.169-1.006 1.172-1.022 1.272-6.057.074-3.729.26-5.293.713-5.985.337-.515.797-2.623 1.021-4.686.224-2.062.668-4.228.987-4.812 1.889-3.462-3.353-5.644-7.034-2.928l-1.369 1.009-.642-.851c-.992-1.315-4.076-1.776-7.976-1.191m34.082-.022c-.945.167-2.091.676-2.546 1.131l-.828.828-1.41-.957c-4.349-2.952-7.344-.938-8.122 5.462-.249 2.049-.699 4.102-1 4.562-.301.459-.737 2.512-.97 4.562-.232 2.05-.707 4.278-1.055 4.952-1.656 3.202-.397 5.505 3.008 5.505 3.254 0 4.415-1.368 4.925-5.802.227-1.979.652-4.066.944-4.637.291-.572.748-2.223 1.014-3.67.372-2.015.665-2.678 1.251-2.831.422-.11.862-.566.979-1.012.228-.872 3.085-1.58 4.376-1.085.869.334.612 7.391-.337 9.237-1.297 2.524-1.598 7.799-.514 8.997 1.821 2.012 6.603.512 6.603-2.071 0-.421.28-1.307.622-1.968.342-.661.816-2.849 1.054-4.861.762-6.446 3.546-9.979 7.307-9.274 1.647.309 2.025 2.835.794 5.303-.343.687-.793 2.889-1 4.894-.207 2.005-.647 4.03-.977 4.502-2.023 2.888 2.183 5.548 5.808 3.674 1.519-.785 1.839-1.457 2.194-4.596.162-1.43.606-3.41.987-4.4 1.092-2.835 1.792-10.982 1.132-13.162-1.181-3.897-7.183-4.868-11.672-1.888-2.436 1.617-3.067 1.585-4.649-.23-1.115-1.28-4.472-1.773-7.918-1.165m54.658-.017c-1.26.148-2.601.574-3.031.963-.995.901-1.552.881-2.8-.101-.746-.587-1.623-.8-3.293-.8-3.309 0-3.871.731-4.433 5.771-.242 2.169-.701 4.343-1.021 4.831-.32.488-.68 2.128-.8 3.643-.12 1.515-.692 4.238-1.271 6.051l-1.053 3.296.821 1.104c.683.917 1.172 1.125 2.89 1.225 3.708.217 4.915-1.313 5.462-6.921.15-1.54.502-3.25.782-3.8.281-.55.711-1.95.957-3.112.767-3.626 4.939-6.474 7.227-4.934.755.508-.044 9.966-.96 11.364-2.256 3.443-.981 7.482 2.361 7.482 3.705 0 5.039-1.987 5.615-8.36.151-1.676.558-3.404.937-3.982.509-.776.703-2.187.809-5.875l.14-4.853-1.362-1.486c-1.523-1.662-3.487-2.033-7.977-1.506m-162.891 1.609c3.233 2.064 4.527 4.59 4.535 8.853.004 2.123-.937 6.396-1.488 6.751-.211.137-.675.789-1.031 1.449-3.992 7.41-15.909 9.369-20.635 3.391-8.008-10.132 7.722-27.404 18.619-20.444m81.733.236l1.174 1.125 1.253-1.054c1.825-1.536 5.262-1.946 6.435-.769.337.339-.978 8.863-1.623 10.515-.764 1.959-1.255 6.051-.998 8.32.587 5.195-3.703 7.769-6.38 3.829l-.921-1.356-1.517 1.029c-11.663 7.915-21.078-6.888-11.65-18.319 3.978-4.822 10.959-6.451 14.227-3.32m48.678-.7c.85.55 1.472 1.774 1.891 3.722.268 1.245-.758 9.287-1.318 10.334-.226.422-.607 2.094-.847 3.714-.805 5.443-1.461 6.347-4.605 6.347-3.108 0-3.268-1.9-.915-10.842 1.353-5.141 1.002-7.768-1.066-7.971-3.767-.371-6.934 2.971-7.592 8.013-.385 2.949-2.11 9.6-2.663 10.266-.633.763-4.503.707-5.152-.075-.613-.738-.311-4.388.569-6.884.327-.927.821-3.501 1.098-5.721.63-5.044.468-5.388-2.529-5.38-3.976.012-6.168 3.788-7.52 12.953-.24 1.627-.548 3.157-.683 3.4-2.162 3.865-7.7 2.838-6.406-1.188.348-1.084.838-3.388 1.09-5.119.251-1.731.698-3.831.993-4.667.295-.835.655-2.388.799-3.452.487-3.569 1.472-7.129 2.113-7.633 1.153-.907 4.006-.624 5.048.5 1.153 1.244 1.629 1.246 3.635.01 1.374-.846 2.093-.987 5.096-.998l3.497-.012.903 1.381c1.032 1.577 2.483 2.125 3.451 1.304 3.283-2.782 8.463-3.716 11.113-2.002m8.766-.452c-1.108 1.108-1.387 1.98-1.85 5.788-.249 2.049-.699 4.102-1 4.562-.301.459-.737 2.512-.97 4.562-.232 2.05-.707 4.278-1.055 4.952-1.656 3.202-.397 5.505 3.008 5.505 3.136 0 4.401-1.398 4.883-5.4.212-1.76.717-4.19 1.121-5.4s.855-3.438 1.002-4.952c.147-1.513.54-3.278.873-3.921.865-1.673 1.192-4.968.568-5.72-.719-.866-5.708-.848-6.58.024m31.268 1.297c1.49 1.695 1.844 6.046.745 9.163-.309.875-.775 3.012-1.036 4.75-1.166 7.768-2.103 9.359-5.512 9.359-2.729 0-3.139-.913-2.103-4.677 2.769-10.056 2.534-14.949-.688-14.303l-1.804.363c-2.879.585-4.965 4.592-6.128 11.776-.901 5.567-1.776 6.841-4.697 6.841-2.276 0-3.38-1.189-2.743-2.953.285-.787.86-3.28 1.277-5.539 2.943-15.933 3.093-16.322 6.269-16.295 2.096.017 3.03.788 2.719 2.244-.201.943-.166 1.021.202.443.244-.385.751-.701 1.125-.701.374-.001 1.31-.388 2.08-.86 3.243-1.988 8.375-1.795 10.294.389M158.32 188.48c.264.264.485 1.029.492 1.7.01 1.022.078 1.107.42.52.224-.385.677-.7 1.006-.7.329 0 1.444-.45 2.477-1 1.588-.845 2.415-1 5.348-1h3.47l1.233 1.558c1.438 1.814 1.725 5.768.65 8.935-.322.947-.86 3.428-1.197 5.514-1.182 7.331-2.047 8.777-5.255 8.787-2.681.008-3.215-.92-2.343-4.074.471-1.706 1.136-5.121 2.217-11.393.433-2.51-1.051-3.808-3.772-3.3-3.695.691-5.661 3.992-6.886 11.566-.938 5.803-1.812 7.214-4.454 7.202-3.283-.016-3.66-.762-2.541-5.033.448-1.712.815-3.6.815-4.195 0-.596.346-2.227.769-3.625.423-1.398.968-3.892 1.211-5.542.563-3.822 1.108-5.493 1.95-5.985.945-.551 3.816-.509 4.39.065m129.273.111c.392.473.329 1.135-.316 3.3-.443 1.49-.926 3.699-1.074 4.909-.148 1.21-.6 3.37-1.006 4.8-.405 1.43-.936 3.931-1.18 5.559-.243 1.627-.554 3.157-.689 3.4-2.162 3.865-7.7 2.838-6.406-1.188.348-1.084.841-3.411 1.097-5.171.255-1.76.619-3.493.81-3.851.19-.358.701-2.518 1.134-4.8 1.155-6.089 1.27-6.501 1.96-7.049.904-.717 5.054-.65 5.67.091m-154.431 5.565c-4.5 2.162-6.398 8.814-3.437 12.046 4.269 4.66 11.491-2.193 10.104-9.586-.495-2.639-3.776-3.85-6.667-2.46m56.638-.526c-2.896.659-4.999 2.662-5.792 5.518-2.627 9.456 7.721 12.026 10.587 2.63 1.261-4.132 1.255-4.347-.152-6.12-1.354-1.707-2.964-2.41-4.643-2.028m28 .235c-2.387.636-5 4.975-5 8.303 0 6.232 6.417 7.296 10.529 1.747 1.235-1.666 1.238-7.919.004-9.156-.88-.884-3.802-1.356-5.533-.894m-79.061 1.503c1.055 1.055.931 6.269-.179 7.5-.463.512-.953 1.25-1.09 1.638-.137.388-.667.865-1.176 1.058-.51.194-1.167.641-1.459.994-.714.86-4.035.902-4.035.051 0-.325-.45-.885-1-1.246-1.364-.894-1.504-5.554-.2-6.67.44-.377.802-.912.804-1.189.023-2.655 6.227-4.245 8.335-2.136m54.921.232c.23.66.6 1.2.823 1.2 1.445 0-1.155 7.918-2.891 8.804-.846.431-1.651.967-1.788 1.19-.477.772-2.646.414-4.068-.67l-1.41-1.075.137-3.521c.126-3.242.224-3.602 1.237-4.541.605-.561 1.1-1.27 1.1-1.575 0-1.542 6.317-1.368 6.86.188m29.425-.65c.173.173.376 2.065.45 4.204l.135 3.89-1.735 1.477c-.954.813-2.05 1.748-2.435 2.078-2.127 1.826-6.3-1.164-6.3-4.515 0-1.213 1.832-5.358 2.544-5.757.361-.202.656-.615.656-.918 0-.94 5.802-1.339 6.685-.459M125.8 276.038c58.284 58.253 73.405 73.162 74.201 73.162.796 0 15.901-14.901 74.174-73.175 40.247-40.247 73.573-73.276 74.059-73.398 1.806-.453 5.962 4.46 6.737 7.965.351 1.584.628 2.034 1.312 2.133.537.077.915.458.992 1 .079.554.455.922 1.025 1.003.495.07.9.292.9.493 0 .608-79.669 79.979-80.28 79.979-.312 0-.469.16-.348.355.121.195-.049.577-.376.849-.328.272-.596.375-.596.229 0-.145-.251-.032-.558.251-.307.284-.489.631-.404.771.084.14-.115.477-.442.749-.328.272-.596.375-.596.229 0-.145-.251-.032-.558.251-.307.284-.489.631-.404.771.084.14-.115.477-.442.749-.328.272-.596.375-.596.229 0-.145-.251-.032-.558.251-.307.284-.489.631-.404.771.084.14-.115.477-.442.749-.328.272-.596.375-.596.229 0-.145-.251-.032-.558.251-.307.284-.489.631-.404.771.084.14-.115.477-.442.749-.328.272-.596.375-.596.229 0-.145-.251-.032-.558.251-.307.284-.489.631-.404.771.084.14-.115.477-.442.749-.328.272-.596.375-.596.229 0-.145-.251-.032-.558.251-.307.284-.489.631-.404.771.084.14-.115.477-.442.749-.328.272-.596.375-.596.229 0-.145-.251-.032-.558.251-.307.284-.489.631-.404.771.084.14-.115.477-.442.749-.328.272-.596.375-.596.229 0-.145-.251-.032-.558.251-.307.284-.489.631-.404.771.084.14-.115.477-.442.749-.328.272-.596.375-.596.229 0-.145-.251-.032-.558.251-.307.284-.489.631-.404.771.084.14-.115.477-.442.749-.328.272-.596.375-.596.229 0-.145-.251-.032-.558.251-.307.284-.489.631-.404.771.084.14-.115.477-.442.749-.328.272-.596.375-.596.229 0-.145-.251-.032-.558.251-.307.284-.489.631-.404.771.084.14-.115.477-.442.749-.328.272-.596.375-.596.229 0-.145-.251-.032-.558.251-.307.284-.489.631-.404.771.084.14-.115.477-.442.749-.328.272-.596.375-.596.229 0-.145-.251-.032-.558.251-.307.284-.489.631-.404.771.084.14-.115.477-.442.749-.328.272-.596.375-.596.229 0-.145-.251-.032-.558.251-.307.284-.489.631-.404.771.084.14-.115.477-.442.749-.328.272-.596.375-.596.229 0-.145-.251-.032-.558.251-.307.284-.489.631-.404.771.084.14-.115.477-.442.749-.328.272-.596.375-.596.229 0-.145-.251-.032-.558.251-.307.284-.489.631-.404.771.084.14-.115.477-.442.749-.328.272-.596.375-.596.229 0-.145-.251-.032-.558.251-.307.284-.489.631-.404.771.084.14-.115.477-.442.749-.328.272-.596.375-.596.229 0-.145-.251-.032-.558.251-.307.284-.489.631-.404.771.084.14-.115.477-.442.749-.328.272-.596.375-.596.229 0-.145-.251-.032-.558.251-.307.284-.489.631-.404.771.084.14-.115.477-.442.749-.328.272-.596.375-.596.229 0-.145-.251-.032-.558.251-.307.284-.489.631-.404.771.084.14-.115.477-.442.749-.328.272-.596.375-.596.229 0-.145-.251-.032-.558.251-.307.284-.489.631-.404.771.084.14-.115.477-.442.749-.328.272-.596.375-.596.229 0-.145-.251-.032-.558.251-.307.284-.489.631-.404.771.084.14-.115.477-.442.749-.328.272-.596.375-.596.229 0-.145-.251-.032-.558.251-.307.284-.489.631-.404.771.084.14-.115.477-.442.749-.328.272-.596.375-.596.229 0-.145-.251-.032-.558.251-.307.284-.489.631-.404.771.084.14-.115.477-.442.749-.328.272-.596.375-.596.229 0-.145-.251-.032-.558.251-.307.284-.489.631-.404.771.084.14-.115.477-.442.749-.328.272-.596.375-.596.229 0-.145-.251-.032-.558.251-.307.284-.489.631-.404.771.084.14-.115.477-.442.749-.328.272-.596.375-.596.229 0-.145-.251-.032-.558.251-.307.284-.489.631-.404.771.084.14-.115.477-.442.749-.328.272-.596.375-.596.229 0-.145-.251-.032-.558.251-.307.284-.489.631-.404.771.084.14-.115.477-.442.749-.328.272-.596.375-.596.229 0-.145-.251-.032-.558.251-.307.284-.489.631-.404.771.084.14-.115.477-.442.749-.328.272-.596.375-.596.229 0-.145-.251-.032-.558.251-.307.284-.489.631-.404.771.084.14-.115.477-.442.749-.328.272-.596.375-.596.229 0-.145-.251-.032-.558.251-.307.284-.489.631-.404.771.084.14-.115.477-.442.749-.328.272-.596.375-.596.229 0-.145-.251-.032-.558.251-.307.284-.489.631-.404.771.084.14-.115.477-.442.749-.328.272-.596.375-.596.229 0-.145-.251-.032-.558.251-.307.284-.489.631-.404.771.084.14-.115.477-.442.749-.328.272-.596.375-.596.229 0-.145-.251-.032-.558.251-.307.284-.489.631-.404.771.084.14-.115.477-.442.749-.328.272-.596.375-.596.229 0-.145-.251-.032-.558.251-.307.284-.489.631-.404.771.084.14-.115.477-.442.749-.328.272-.596.375-.596.229 0-.145-.251-.032-.558.251-.307.284-.489.631-.404.771.084.14-.115.477-.442.749-.328.272-.596.375-.596.229 0-.145-.251-.032-.558.251-.307.284-.489.631-.404.771.084.14-.115.477-.442.749-.328.272-.596.375-.596.229 0-.145-.251-.032-.558.251-.307.284-.489.631-.404.771.084.14-.115.477-.442.749-.328.272-.596.342-.596.156 0-.186-.272.051-.605.526-.768 1.096-2.005 1.016-2.64-.169-.269-.505-.699-.917-.955-.917s-.706-.45-1-1c-.294-.55-.744-1-1-1s-.706-.45-1-1c-.294-.55-.744-1-1-1s-.706-.45-1-1c-.294-.55-.744-1-1-1s-.706-.45-1-1c-.294-.55-.744-1-1-1s-.706-.45-1-1c-.294-.55-.744-1-1-1s-.706-.45-1-1c-.294-.55-.744-1-1-1s-.706-.45-1-1c-.294-.55-.744-1-1-1s-.706-.45-1-1c-.294-.55-.744-1-1-1s-.706-.45-1-1c-.294-.55-.744-1-1-1s-.706-.45-1-1c-.294-.55-.744-1-1-1s-.706-.45-1-1c-.294-.55-.744-1-1-1s-.706-.45-1-1c-.294-.55-.744-1-1-1s-.706-.45-1-1c-.294-.55-.744-1-1-1s-.706-.45-1-1c-.294-.55-.744-1-1-1s-.706-.45-1-1c-.294-.55-.744-1-1-1s-.706-.45-1-1c-.294-.55-.744-1-1-1s-.706-.45-1-1c-.294-.55-.744-1-1-1s-.706-.45-1-1c-.294-.55-.744-1-1-1s-.706-.45-1-1c-.294-.55-.744-1-1-1s-.706-.45-1-1c-.294-.55-.744-1-1-1s-.706-.45-1-1c-.294-.55-.744-1-1-1s-.706-.45-1-1c-.294-.55-.744-1-1-1s-.706-.45-1-1c-.294-.55-.744-1-1-1s-.706-.45-1-1c-.294-.55-.744-1-1-1s-.706-.45-1-1c-.294-.55-.744-1-1-1s-.706-.45-1-1c-.294-.55-.744-1-1-1s-.706-.45-1-1c-.294-.55-.744-1-1-1s-.706-.45-1-1c-.294-.55-.744-1-1-1s-.706-.45-1-1c-.294-.55-.744-1-1-1s-.706-.45-1-1c-.294-.55-.744-1-1-1s-.706-.45-1-1c-.294-.55-.744-1-1-1s-.706-.45-1-1c-.294-.55-.744-1-1-1s-.706-.45-1-1c-.294-.55-.744-1-1-1s-.706-.45-1-1c-.294-.55-.744-1-1-1s-.706-.45-1-1c-.294-.55-.744-1-1-1s-.706-.45-1-1c-.294-.55-.744-1-1-1s-.706-.45-1-1c-.294-.55-.744-1-1-1s-.706-.45-1-1c-.294-.55-.744-1-1-1s-.706-.45-1-1c-.294-.55-.744-1-1-1s-.706-.45-1-1c-.294-.55-.744-1-1-1s-.706-.45-1-1c-.294-.55-.744-1-1-1s-.706-.45-1-1c-.294-.55-.744-1-1-1s-.706-.45-1-1c-.294-.55-.744-1-1-1s-.706-.45-1-1c-.294-.55-.744-1-1-1s-.706-.45-1-1c-.294-.55-.744-1-1-1s-.706-.45-1-1c-.294-.55-.744-1-1-1s-.706-.45-1-1c-.294-.55-.744-1-1-1s-.706-.45-1-1c-.294-.55-.744-1-1-1s-.706-.45-1-1c-.294-.55-.744-1-1-1s-.706-.45-1-1c-.294-.55-.744-1-1-1s-.706-.45-1-1c-.294-.55-.744-1-1-1s-.706-.45-1-1c-.294-.55-.744-1-1-1s-.706-.45-1-1c-.294-.55-.744-1-1-1s-.706-.45-1-1c-.294-.55-.744-1-1-1s-.706-.45-1-1c-.294-.55-.744-1-1-1s-.706-.45-1-1c-.294-.55-.744-1-1-1s-.706-.45-1-1c-.294-.55-.744-1-1-1s-.706-.45-1-1c-.294-.55-.744-1-1-1s-.706-.45-1-1c-.294-.55-.744-1-1-1s-.706-.45-1-1c-.294-.55-.744-1-1-1s-.706-.45-1-1c-.294-.55-.744-1-1-1s-.706-.45-1-1c-.294-.55-.744-1-1-1s-.706-.45-1-1c-.294-.55-.744-1-1-1s-.706-.45-1-1c-.294-.55-.744-1-1-1s-.706-.45-1-1c-.294-.55-.744-1-1-1s-.706-.45-1-1c-.294-.55-.744-1-1-1s-.706-.45-1-1c-.294-.55-.744-1-1-1s-.706-.45-1-1c-.294-.55-.744-1-1-1s-.706-.45-1-1c-.294-.55-.744-1-1-1s-.706-.45-1-1c-.294-.55-.744-1-1-1s-.706-.45-1-1c-.294-.55-.744-1-1-1s-.706-.45-1-1c-.294-.55-.744-1-1-1s-.706-.45-1-1c-.294-.55-.744-1-1-1s-.706-.45-1-1c-.294-.55-.744-1-1-1s-.706-.45-1-1c-.294-.55-.744-1-1-1s-.706-.45-1-1c-.294-.55-.744-1-1-1s-.706-.45-1-1c-.294-.55-.744-1-1-1s-.706-.45-1-1c-.294-.55-.775-1-1.068-1-.292 0-.532-.27-.532-.6 0-.373.378-.6 1-.6.8 0 1-.2 1-1s.2-1 1-1c.928 0 1-.139 1-1.921 0-2.322 5.382-8.637 7-8.213.44.116 33.74 33.133 74 73.372" fill="#b1cb15"/><path id="path2" d="M231.4 119.2c-.88.425-1.944.779-2.365.786-4.883.087-14.758 11.057-19.995 22.214a692.084 692.084 0 01-2.082 4.403c-.318.661-.835 2.101-1.147 3.2a114.228 114.228 0 01-1.165 3.797c-1.156 3.492-2.244 7.424-2.641 9.548a50.613 50.613 0 01-1.011 4.196c-.678 2.285-1.517 8.53-1.424 10.6.034.74-.208 2.27-.536 3.4-.328 1.131-.805 3.399-1.059 5.039-.721 4.654-.646 4.578-2.975 2.969-10.876-7.513-25.108 12.613-15.34 21.694 2.989 2.78 9.002 2.758 12.256-.046l1.084-.934 1.224 1.335c3.503 3.818 7.454 1.158 6.469-4.356-.267-1.494-.191-2.436.322-4 .369-1.125.924-3.727 1.234-5.783.31-2.055.732-4.054.939-4.44.207-.387.673-2.575 1.036-4.863.363-2.287.839-4.497 1.059-4.91.22-.412.641-3.751.937-7.419.296-3.667.73-7.173.965-7.79.235-.618.697-2.921 1.027-5.119.33-2.198.769-4.312.975-4.697.207-.386.675-2.034 1.041-3.663.366-1.628.811-3.143.989-3.366.178-.223.541-1.303.807-2.4s.819-2.556 1.23-3.242c.41-.686.746-1.476.746-1.756 0-.477 2.63-6.039 3.687-7.797 1.69-2.812 3.514-5.386 4.808-6.784.822-.889 1.497-1.72 1.5-1.846.01-.473 5.398-4.584 6.872-5.245.843-.377 1.533-.961 1.533-1.298 0-.342.484-.718 1.1-.853 2.103-.461 2.369-.663 1.3-.989-1.475-.45-1.654-.429-3.4.415m52.964 59.286c-.35.283-.96 1.491-1.356 2.685l-.72 2.171.901.729c1.369 1.109 4.039.976 5.199-.258 1.032-1.098 1.636-4.704.867-5.179-.909-.562-4.253-.663-4.891-.148m-194.291 1.636c-.814.867-1.437 2.986-2.433 8.278-.929 4.93-2.093 10.316-2.638 12.2-.318 1.1-.761 3.26-.984 4.8-.224 1.54-.608 3.512-.854 4.383-.742 2.625 2.196 3.989 5.223 2.424 1.178-.61 1.348-1.05 1.85-4.807.147-1.1.586-3.08.975-4.4.389-1.32.929-3.896 1.2-5.724l.493-3.325 1.132 1.085c.786.752 1.271 1.771 1.584 3.324 2.299 11.403 4.729 11.536 11.702.64 4.584-7.163 5.57-6.693 3.324 1.584-.356 1.311-.647 2.762-.647 3.225 0 .462-.367 2.241-.815 3.953-.449 1.711-.713 3.436-.587 3.832.468 1.473 4.43 1.687 5.673.306 1.195-1.328 1.264-1.517 1.739-4.741.239-1.628.772-4.219 1.184-5.759.412-1.54 1.032-4.24 1.377-6 1.164-5.925 1.837-9.19 2.271-11 1.059-4.425.355-5.399-3.642-5.042-2.488.222-2.994.669-6.334 5.594a270.711 270.711 0 01-2.866 4.153 147.955 147.955 0 00-3.916 5.786c-1.458 2.276-2.913 1.661-3.591-1.516a58.889 58.889 0 00-1.279-4.775 49.204 49.204 0 01-1.247-4.91c-.797-4.211-5.354-6.271-7.894-3.568m44.127 7.897c-9.662 1.119-16.196 14.454-10.57 21.572 4.726 5.978 16.643 4.019 20.635-3.391.356-.66.82-1.312 1.031-1.449.551-.355 1.492-4.628 1.488-6.751-.014-7.31-4.555-10.911-12.584-9.981m82.975-.013c-9.983 1.171-15.232 18.476-7.237 23.864 2.794 1.883 8.012 1.497 11.467-.848l1.517-1.029.921 1.356c2.677 3.94 6.967 1.366 6.38-3.829-.257-2.269.234-6.361.998-8.32.645-1.652 1.96-10.176 1.623-10.515-1.173-1.177-4.61-.767-6.435.769l-1.253 1.054-1.174-1.125c-1.309-1.255-3.71-1.74-6.807-1.377m50.022-.024c-1.666.216-4.074 1.367-5.65 2.703-.968.821-2.419.273-3.451-1.304l-.903-1.381-3.497.012c-3.003.011-3.722.152-5.096.998-2.006 1.236-2.482 1.234-3.635-.01-1.042-1.124-3.895-1.407-5.048-.5-.641.504-1.626 4.064-2.113 7.633-.144 1.064-.504 2.617-.799 3.452-.295.836-.742 2.936-.993 4.667-.252 1.731-.742 4.035-1.09 5.119-1.294 4.026 4.244 5.053 6.406 1.188.135-.243.443-1.773.683-3.4 1.352-9.165 3.544-12.941 7.52-12.953 2.997-.008 3.159.336 2.529 5.38-.277 2.22-.771 4.794-1.098 5.721-.88 2.496-1.182 6.146-.569 6.884.649.782 4.519.838 5.152.075.553-.666 2.278-7.317 2.663-10.266.658-5.042 3.825-8.384 7.592-8.013 2.068.203 2.419 2.83 1.066 7.971-2.353 8.942-2.193 10.842.915 10.842 3.144 0 3.8-.904 4.605-6.347.24-1.62.621-3.292.847-3.714.56-1.047 1.586-9.089 1.318-10.334-.838-3.894-2.714-5.022-7.354-4.423m38.803.002c-1.21.163-2.83.683-3.6 1.155s-1.706.859-2.08.86c-.374 0-.881.316-1.125.701-.368.578-.403.5-.202-.443.311-1.456-.623-2.227-2.719-2.244-3.176-.027-3.326.362-6.269 16.295-.417 2.259-.992 4.752-1.277 5.539-.637 1.764.467 2.953 2.743 2.953 2.921 0 3.796-1.274 4.697-6.841 1.163-7.184 3.249-11.191 6.128-11.776l1.804-.363c3.222-.646 3.457 4.247.688 14.303-1.036 3.764-.626 4.677 2.103 4.677 3.409 0 4.346-1.591 5.512-9.359.261-1.738.727-3.875 1.036-4.75 2.506-7.104-.634-11.623-7.439-10.707m-152.07.431c-.842.492-1.387 2.163-1.95 5.985-.243 1.65-.788 4.144-1.211 5.542-.423 1.398-.769 3.029-.769 3.625 0 .595-.367 2.483-.815 4.195-1.119 4.271-.742 5.017 2.541 5.033 2.642.012 3.516-1.399 4.454-7.202 1.225-7.574 3.191-10.875 6.886-11.566 2.721-.508 4.205.79 3.772 3.3-1.081 6.272-1.746 9.687-2.217 11.393-.872 3.154-.338 4.082 2.343 4.074 3.208-.01 4.073-1.456 5.255-8.787.337-2.086.875-4.567 1.197-5.514 1.075-3.167.788-7.121-.65-8.935L171.533 188h-3.47c-2.933 0-3.76.155-5.348 1-1.033.55-2.148 1-2.477 1-.329 0-.782.315-1.006.7-.342.587-.41.502-.42-.52-.02-2.017-2.755-3.006-4.882-1.765m127.993.085c-.69.548-.805.96-1.96 7.049-.433 2.282-.944 4.442-1.134 4.8-.191.358-.555 2.091-.81 3.851-.256 1.76-.749 4.087-1.097 5.171-1.294 4.026 4.244 5.053 6.406 1.188.135-.243.446-1.773.689-3.4.244-1.628.775-4.129 1.18-5.559.406-1.43.858-3.59 1.006-4.8.148-1.21.631-3.419 1.074-4.909 1.023-3.437.738-3.891-2.45-3.891-1.251 0-2.558.225-2.904.5m-143.333 6.057c1.909 1.251 1.913 6.472.008 9.332-3.907 5.862-10.198 4.725-10.198-1.843 0-6.146 5.769-10.386 10.19-7.489m55.853 1.101c1.407 1.773 1.413 1.988.152 6.12-2.338 7.667-11.004 7.931-10.993.335.011-7.155 6.989-11.31 10.841-6.455m28.89-.899c2.385 2.393.981 8.868-2.501 11.541-6.686 5.131-11.283-5.214-4.96-11.161 1.917-1.803 5.844-2.003 7.461-.38M40.8 215.603c0 .218.24.397.532.397.293 0 .774.45 1.068 1 .294.55.744 1 1 1s.706.45 1 1c.294.55.744 1 1 1s.706.45 1 1c.294.55.744 1 1 1s.706.45 1 1c.294.55.744 1 1 1s.706.45 1 1c.294.55.744 1 1 1s.706.45 1 1c.294.55.744 1 1 1s.706.45 1 1c.294.55.744 1 1 1s.706.45 1 1c.294.55.744 1 1 1s.706.45 1 1c.294.55.744 1 1 1s.706.45 1 1c.294.55.744 1 1 1s.706.45 1 1c.294.55.744 1 1 1s.706.45 1 1c.294.55.744 1 1 1s.706.45 1 1c.294.55.744 1 1 1s.706.45 1 1c.294.55.744 1 1 1s.706.45 1 1c.294.55.744 1 1 1s.706.45 1 1c.294.55.744 1 1 1s.706.45 1 1c.294.55.744 1 1 1s.706.45 1 1c.294.55.744 1 1 1s.706.45 1 1c.294.55.744 1 1 1s.706.45 1 1c.294.55.744 1 1 1s.706.45 1 1c.294.55.744 1 1 1s.706.45 1 1c.294.55.744 1 1 1s.706.45 1 1c.294.55.744 1 1 1s.706.45 1 1c.294.55.744 1 1 1s.706.45 1 1c.294.55.744 1 1 1s.706.45 1 1c.294.55.744 1 1 1s.706.45 1 1c.294.55.744 1 1 1s.706.45 1 1c.294.55.744 1 1 1s.706.45 1 1c.294.55.744 1 1 1s.706.45 1 1c.294.55.744 1 1 1s.706.45 1 1c.294.55.744 1 1 1s.706.45 1 1c.294.55.744 1 1 1s.706.45 1 1c.294.55.744 1 1 1s.706.45 1 1c.294.55.744 1 1 1s.706.45 1 1c.294.55.744 1 1 1s.706.45 1 1c.294.55.744 1 1 1s.706.45 1 1c.294.55.744 1 1 1s.706.45 1 1c.294.55.744 1 1 1s.706.45 1 1c.294.55.744 1 1 1s.706.45 1 1c.294.55.744 1 1 1s.706.45 1 1c.294.55.744 1 1 1s.706.45 1 1c.294.55.744 1 1 1s.706.45 1 1c.294.55.744 1 1 1s.706.45 1 1c.294.55.744 1 1 1s.706.45 1 1c.294.55.744 1 1 1s.706.45 1 1c.294.55.744 1 1 1s.706.45 1 1c.294.55.744 1 1 1s.706.45 1 1c.294.55.744 1 1 1s.706.45 1 1c.294.55.744 1 1 1s.706.45 1 1c.294.55.744 1 1 1s.706.45 1 1c.294.55.744 1 1 1s.706.45 1 1c.294.55.744 1 1 1s.706.45 1 1c.294.55.744 1 1 1s.706.45 1 1c.294.55.744 1 1 1s.706.45 1 1c.294.55.744 1 1 1s.706.45 1 1c.294.55.744 1 1 1s.706.45 1 1c.294.55.744 1 1 1s.706.45 1 1c.294.55.744 1 1 1s.706.45 1 1c.294.55.744 1 1 1s.706.45 1 1c.294.55.744 1 1 1s.706.45 1 1c.294.55.744 1 1 1s.706.45 1 1c.294.55.744 1 1 1s.706.45 1 1c.294.55.744 1 1 1s.706.45 1 1c.294.55.744 1 1 1s.706.45 1 1c.294.55.744 1 1 1s.706.45 1 1c.294.55.744 1 1 1s.706.45 1 1c.294.55.744 1 1 1s.706.45 1 1c.294.55.744 1 1 1s.706.45 1 1c.294.55.744 1 1 1s.706.45 1 1c.294.55.744 1 1 1s.706.45 1 1c.294.55.744 1 1 1s.706.45 1 1c.294.55.744 1 1 1s.706.45 1 1c.294.55.744 1 1 1s.706.45 1 1c.294.55.744 1 1 1s.706.45 1 1c.294.55.744 1 1 1s.706.45 1 1c.294.55.744 1 1 1s.706.45 1 1c.294.55.744 1 1 1s.706.45 1 1c.294.55.744 1 1 1s.686.412.955.917c.503.938 1.846 1.329 2.261.658.127-.206-.217-.375-.765-.375-.728 0-1.03-.242-1.123-.9-.07-.495-.353-.922-.628-.95a32.087 32.087 0 01-.872-.1c-.205-.027-.43-.455-.5-.95-.07-.495-.353-.922-.628-.95a32.087 32.087 0 01-.872-.1c-.205-.028-.43-.455-.5-.95-.07-.495-.353-.922-.628-.95a32.087 32.087 0 01-.872-.1c-.205-.028-.43-.455-.5-.95-.07-.495-.353-.922-.628-.95a32.087 32.087 0 01-.872-.1c-.205-.027-.43-.455-.5-.95-.07-.495-.353-.922-.628-.95a32.087 32.087 0 01-.872-.1c-.205-.027-.43-.455-.5-.95-.07-.495-.353-.922-.628-.95a32.087 32.087 0 01-.872-.1c-.205-.027-.43-.455-.5-.95-.07-.495-.353-.922-.628-.95a32.087 32.087 0 01-.872-.1c-.205-.027-.43-.455-.5-.95-.07-.495-.353-.922-.628-.95a32.087 32.087 0 01-.872-.1c-.205-.027-.43-.455-.5-.95-.07-.495-.353-.922-.628-.95a32.087 32.087 0 01-.872-.1c-.205-.027-.43-.455-.5-.95-.07-.495-.353-.922-.628-.95a32.087 32.087 0 01-.872-.1c-.205-.028-.43-.455-.5-.95-.07-.495-.353-.922-.628-.95a32.087 32.087 0 01-.872-.1c-.205-.027-.43-.455-.5-.95-.07-.495-.353-.922-.628-.95a32.087 32.087 0 01-.872-.1c-.205-.027-.43-.455-.5-.95-.07-.495-.353-.922-.628-.95a32.087 32.087 0 01-.872-.1c-.205-.027-.43-.455-.5-.95-.07-.495-.353-.922-.628-.95a32.087 32.087 0 01-.872-.1c-.205-.027-.43-.455-.5-.95-.07-.495-.353-.922-.628-.95a32.087 32.087 0 01-.872-.1c-.205-.028-.43-.455-.5-.95-.07-.495-.353-.922-.628-.95a32.087 32.087 0 01-.872-.1c-.205-.027-.43-.455-.5-.95-.07-.495-.353-.922-.628-.95a32.087 32.087 0 01-.872-.1c-.205-.027-.43-.455-.5-.95-.07-.495-.353-.922-.628-.95a32.087 32.087 0 01-.872-.1c-.205-.027-.43-.455-.5-.95-.07-.495-.353-.922-.628-.95a32.087 32.087 0 01-.872-.1c-.205-.027-.43-.455-.5-.95-.07-.495-.353-.922-.628-.95a32.087 32.087 0 01-.872-.1c-.205-.027-.43-.455-.5-.95-.07-.495-.353-.922-.628-.95a32.087 32.087 0 01-.872-.1c-.205-.027-.43-.455-.5-.95-.07-.495-.353-.922-.628-.95a32.087 32.087 0 01-.872-.1c-.205-.027-.43-.455-.5-.95-.07-.495-.353-.922-.628-.95a32.087 32.087 0 01-.872-.1c-.205-.027-.43-.455-.5-.95-.07-.495-.353-.922-.628-.95a32.087 32.087 0 01-.872-.1c-.205-.027-.43-.455-.5-.95-.07-.495-.353-.922-.628-.95a32.087 32.087 0 01-.872-.1c-.205-.027-.43-.455-.5-.95-.07-.495-.353-.922-.628-.95a32.087 32.087 0 01-.872-.1c-.205-.027-.43-.455-.5-.95-.07-.495-.353-.922-.628-.95a32.087 32.087 0 01-.872-.1c-.205-.027-.43-.455-.5-.95-.07-.495-.353-.922-.628-.95a32.087 32.087 0 01-.872-.1c-.205-.027-.43-.455-.5-.95-.07-.495-.353-.922-.628-.95a32.087 32.087 0 01-.872-.1c-.205-.027-.43-.455-.5-.95-.07-.495-.353-.922-.628-.95a32.087 32.087 0 01-.872-.1c-.205-.027-.43-.455-.5-.95-.07-.495-.353-.922-.628-.95a32.087 32.087 0 01-.872-.1c-.205-.027-.43-.455-.5-.95-.07-.495-.353-.922-.628-.95a32.087 32.087 0 01-.872-.1c-.205-.027-.43-.455-.5-.95-.07-.495-.353-.922-.628-.95a32.087 32.087 0 01-.872-.1c-.205-.027-.43-.455-.5-.95-.07-.495-.353-.923-.628-.95a32.087 32.087 0 01-.872-.1c-.205-.027-.43-.455-.5-.95-.07-.495-.353-.923-.628-.95a32.087 32.087 0 01-.872-.1c-.205-.027-.43-.455-.5-.95-.07-.495-.353-.923-.628-.95a32.087 32.087 0 01-.872-.1c-.205-.027-.43-.455-.5-.95-.07-.495-.353-.923-.628-.95a32.087 32.087 0 01-.872-.1c-.205-.027-.43-.455-.5-.95-.07-.495-.353-.923-.628-.95a32.087 32.087 0 01-.872-.1c-.205-.027-.43-.455-.5-.95-.07-.495-.353-.923-.628-.95a32.087 32.087 0 01-.872-.1c-.205-.027-.43-.455-.5-.95-.07-.495-.353-.923-.628-.95a32.087 32.087 0 01-.872-.1c-.205-.027-.43-.455-.5-.95-.07-.495-.353-.923-.628-.95a32.087 32.087 0 01-.872-.1c-.205-.027-.43-.455-.5-.95-.07-.495-.353-.923-.628-.95a32.087 32.087 0 01-.872-.1c-.205-.027-.43-.455-.5-.95-.07-.495-.353-.923-.628-.95a32.087 32.087 0 01-.872-.1c-.205-.027-.43-.455-.5-.95-.07-.495-.353-.923-.628-.95a32.087 32.087 0 01-.872-.1c-.205-.027-.43-.455-.5-.95-.07-.495-.353-.923-.628-.95a32.087 32.087 0 01-.872-.1c-.205-.027-.43-.455-.5-.95-.07-.495-.353-.923-.628-.95a32.087 32.087 0 01-.872-.1c-.205-.027-.43-.455-.5-.95-.07-.495-.353-.923-.628-.95a32.087 32.087 0 01-.872-.1c-.205-.027-.43-.455-.5-.95-.07-.495-.353-.923-.628-.95a32.087 32.087 0 01-.872-.1c-.205-.027-.43-.455-.5-.95-.07-.495-.353-.923-.628-.95a32.087 32.087 0 01-.872-.1c-.205-.027-.43-.455-.5-.95-.07-.495-.353-.923-.628-.95a32.087 32.087 0 01-.872-.1c-.205-.027-.43-.455-.5-.95-.07-.495-.353-.923-.628-.95a32.087 32.087 0 01-.872-.1c-.205-.027-.43-.455-.5-.95-.07-.495-.353-.923-.628-.95a32.087 32.087 0 01-.872-.1c-.205-.027-.43-.455-.5-.95-.07-.495-.353-.923-.628-.95a32.087 32.087 0 01-.872-.1c-.205-.027-.43-.455-.5-.95-.07-.495-.353-.923-.628-.95a32.087 32.087 0 01-.872-.1c-.205-.027-.43-.455-.5-.95-.07-.495-.353-.923-.628-.95a32.087 32.087 0 01-.872-.1c-.205-.027-.43-.455-.5-.95-.07-.495-.353-.923-.628-.95a32.087 32.087 0 01-.872-.1c-.205-.027-.43-.455-.5-.95-.07-.495-.353-.923-.628-.95a32.087 32.087 0 01-.872-.1c-.205-.027-.43-.455-.5-.95-.07-.495-.353-.923-.628-.95a32.087 32.087 0 01-.872-.1c-.205-.027-.43-.455-.5-.95-.07-.495-.353-.922-.628-.95a32.087 32.087 0 01-.872-.1c-.205-.028-.43-.455-.5-.95-.07-.495-.353-.922-.628-.95a32.087 32.087 0 01-.872-.1c-.205-.028-.43-.455-.5-.95-.07-.495-.353-.922-.628-.95a32.087 32.087 0 01-.872-.1c-.205-.028-.43-.455-.5-.95-.07-.495-.353-.922-.628-.95a32.087 32.087 0 01-.872-.1c-.205-.028-.43-.455-.5-.95-.07-.495-.353-.922-.628-.95a32.087 32.087 0 01-.872-.1c-.205-.028-.43-.455-.5-.95-.07-.495-.353-.922-.628-.95a32.087 32.087 0 01-.872-.1c-.205-.028-.43-.455-.5-.95-.07-.495-.353-.922-.628-.95a32.087 32.087 0 01-.872-.1c-.205-.028-.43-.455-.5-.95-.07-.495-.353-.922-.628-.95a32.087 32.087 0 01-.872-.1c-.205-.028-.43-.455-.5-.95-.07-.495-.353-.922-.628-.95a32.087 32.087 0 01-.872-.1c-.205-.028-.43-.455-.5-.95-.07-.495-.353-.922-.628-.95a32.087 32.087 0 01-.872-.1c-.205-.028-.43-.455-.5-.95-.07-.495-.353-.922-.628-.95a32.087 32.087 0 01-.872-.1c-.205-.028-.43-.455-.5-.95-.07-.495-.353-.922-.628-.95a32.087 32.087 0 01-.872-.1c-.205-.028-.43-.455-.5-.95-.07-.495-.353-.922-.628-.95a32.087 32.087 0 01-.872-.1c-.205-.028-.43-.455-.5-.95-.07-.495-.353-.922-.628-.95a32.087 32.087 0 01-.872-.1c-.205-.028-.43-.455-.5-.95-.07-.495-.353-.922-.628-.95a32.087 32.087 0 01-.872-.1c-.205-.028-.43-.455-.5-.95-.07-.495-.353-.922-.628-.95a32.087 32.087 0 01-.872-.1c-.205-.028-.43-.455-.5-.95-.07-.495-.353-.922-.628-.95a32.087 32.087 0 01-.872-.1c-.205-.028-.43-.455-.5-.95-.07-.495-.353-.922-.628-.95a32.087 32.087 0 01-.872-.1c-.205-.028-.43-.455-.5-.95-.07-.495-.353-.922-.628-.95a32.087 32.087 0 01-.872-.1c-.205-.028-.43-.455-.5-.95-.07-.495-.353-.922-.628-.95a32.087 32.087 0 01-.872-.1c-.205-.028-.43-.438-.5-.912-.128-.861-1.928-1.548-1.928-.735m316.769-.218c-.016.008-.093.346-.17.752-.174.922-.35 1.097-1.229 1.226-.387.057-.75.42-.807.807-.057.387-.19.79-.296.897-.107.106-.51.239-.897.296-.387.057-.75.42-.807.807-.129.88-.313 1.064-1.193 1.193-.387.057-.75.42-.807.807-.129.88-.313 1.064-1.193 1.193-.387.057-.75.42-.807.807-.129.88-.313 1.064-1.193 1.193-.387.057-.75.42-.807.807-.057.387-.19.79-.296.897-.107.106-.51.239-.897.296-.387.057-.75.42-.807.807-.129.88-.313 1.064-1.193 1.193-.387.057-.75.42-.807.807-.129.88-.313 1.064-1.193 1.193-.387.057-.75.42-.807.807-.057.387-.19.79-.296.897-.107.106-.51.239-.897.296-.387.057-.75.42-.807.807-.057.387-.19.79-.296.897-.107.106-.51.239-.897.296-.387.057-.75.42-.807.807-.129.88-.313 1.064-1.193 1.193-.387.057-.75.42-.807.807-.057.387-.19.79-.296.897-.107.106-.51.239-.897.296-.387.057-.75.42-.807.807-.129.88-.313 1.064-1.193 1.193-.387.057-.75.42-.807.807-.129.88-.313 1.064-1.193 1.193-.387.057-.75.42-.807.807-.129.88-.313 1.064-1.193 1.193-.387.057-.75.42-.807.807-.057.387-.19.79-.296.897-.107.106-.51.239-.897.296-.387.057-.75.42-.807.807-.057.387-.19.79-.296.897-.107.106-.51.239-.897.296-.387.057-.75.42-.807.807-.129.88-.313 1.064-1.193 1.193-.387.057-.75.42-.807.807-.129.88-.313 1.064-1.193 1.193-.387.057-.75.42-.807.807-.129.88-.313 1.064-1.193 1.193-.387.057-.75.42-.807.807-.129.88-.313 1.064-1.193 1.193-.387.057-.75.42-.807.807-.129.88-.313 1.064-1.193 1.193-.387.057-.75.42-.807.807-.129.88-.313 1.064-1.193 1.193-.387.057-.75.42-.807.807-.129.88-.313 1.064-1.193 1.193-.387.057-.75.42-.807.807-.129.88-.313 1.064-1.193 1.193-.387.057-.75.42-.807.807-.129.88-.313 1.064-1.193 1.193-.387.057-.75.42-.807.807-.129.88-.313 1.064-1.193 1.193-.387.057-.75.42-.807.807-.129.88-.313 1.064-1.193 1.193-.387.057-.75.42-.807.807-.057.387-.19.79-.296.897-.107.106-.51.239-.897.296-.387.057-.75.42-.807.807-.129.88-.313 1.064-1.193 1.193-.387.057-.75.42-.807.807-.129.88-.313 1.064-1.193 1.193-.387.057-.75.42-.807.807-.129.88-.313 1.064-1.193 1.193-.387.057-.75.42-.807.807-.129.88-.313 1.064-1.193 1.193-.387.057-.75.42-.807.807-.129.88-.313 1.064-1.193 1.193-.387.057-.75.42-.807.807-.129.88-.313 1.064-1.193 1.193-.387.057-.75.42-.807.807-.129.88-.313 1.064-1.193 1.193-.387.057-.75.42-.807.807-.129.88-.313 1.064-1.193 1.193-.387.057-.75.42-.807.807-.129.88-.313 1.064-1.193 1.193-.387.057-.75.42-.807.807-.129.88-.313 1.064-1.192 1.193-.559.082-1.348 1.837-.825 1.837.203 0 79.854-79.58 79.854-79.782 0-.123-1.387-.151-1.631-.033m-79.865 80.436c-.273.295-.338.634-.145.753.193.12.559-.035.815-.343.605-.729-.021-1.113-.67-.41m-2 2c-.273.295-.338.634-.145.753.193.12.559-.035.815-.343.605-.729-.021-1.113-.67-.41m-2 2c-.273.295-.338.634-.145.753.193.12.559-.035.815-.343.605-.729-.021-1.113-.67-.41m-2 2c-.273.295-.338.634-.145.753.193.12.559-.035.815-.343.605-.729-.021-1.113-.67-.41m-2 2c-.273.295-.338.634-.145.753.193.12.559-.035.815-.343.605-.729-.021-1.113-.67-.41m-2 2c-.273.295-.338.634-.145.753.193.12.559-.035.815-.343.605-.729-.021-1.113-.67-.41m-2 2c-.273.295-.338.634-.145.753.193.12.559-.035.815-.343.605-.729-.021-1.113-.67-.41m-2 2c-.273.295-.338.634-.145.753.193.12.559-.035.815-.343.605-.729-.021-1.113-.67-.41m-2 2c-.273.295-.338.634-.145.753.193.12.559-.035.815-.343.605-.729-.021-1.113-.67-.41m-2 2c-.273.295-.338.634-.145.753.193.12.559-.035.815-.343.605-.729-.021-1.113-.67-.41m-2 2c-.273.295-.338.634-.145.753.193.12.559-.035.815-.343.605-.729-.021-1.113-.67-.41m-2 2c-.273.295-.338.634-.145.753.193.12.559-.035.815-.343.605-.729-.021-1.113-.67-.41m-2 2c-.273.295-.338.634-.145.753.193.12.559-.035.815-.343.605-.729-.021-1.113-.67-.41m-2 2c-.273.295-.338.634-.145.753.193.12.559-.035.815-.343.605-.729-.021-1.113-.67-.41m-2 2c-.273.295-.338.634-.145.753.193.12.559-.035.815-.343.605-.729-.021-1.113-.67-.41m-2 2c-.273.295-.338.634-.145.753.193.12.559-.035.815-.343.605-.729-.021-1.113-.67-.41m-2 2c-.273.295-.338.634-.145.753.193.12.559-.035.815-.343.605-.729-.021-1.113-.67-.41m-2 2c-.273.295-.338.634-.145.753.193.12.559-.035.815-.343.605-.729-.021-1.113-.67-.41m-2 2c-.273.295-.338.634-.145.753.193.12.559-.035.815-.343.605-.729-.021-1.113-.67-.41m-2 2c-.273.295-.338.634-.145.753.193.12.559-.035.815-.343.605-.729-.021-1.113-.67-.41m-2 2c-.273.295-.338.634-.145.753.193.12.559-.035.815-.343.605-.729-.021-1.113-.67-.41m-2 2c-.273.295-.338.634-.145.753.193.12.559-.035.815-.343.605-.729-.021-1.113-.67-.41m-2 2c-.273.295-.338.634-.145.753.193.12.559-.035.815-.343.605-.729-.021-1.113-.67-.41m-2 2c-.273.295-.338.634-.145.753.193.12.559-.035.815-.343.605-.729-.021-1.113-.67-.41m-2 2c-.273.295-.338.634-.145.753.193.12.559-.035.815-.343.605-.729-.021-1.113-.67-.41m-2 2c-.273.295-.338.634-.145.753.193.12.559-.035.815-.343.605-.729-.021-1.113-.67-.41m-2 2c-.273.295-.338.634-.145.753.193.12.559-.035.815-.343.605-.729-.021-1.113-.67-.41m-2 2c-.273.295-.338.634-.145.753.193.12.559-.035.815-.343.605-.729-.021-1.113-.67-.41m-2 2c-.273.295-.338.634-.145.753.193.12.559-.035.815-.343.605-.729-.021-1.113-.67-.41m-2 2c-.273.295-.338.634-.145.753.193.12.559-.035.815-.343.605-.729-.021-1.113-.67-.41m-2 2c-.273.295-.338.634-.145.753.193.12.559-.035.815-.343.605-.729-.021-1.113-.67-.41m-2 2c-.273.295-.338.634-.145.753.193.12.559-.035.815-.343.605-.729-.021-1.113-.67-.41m-2 2c-.273.295-.338.634-.145.753.193.12.559-.035.815-.343.605-.729-.021-1.113-.67-.41m-2 2c-.273.295-.338.634-.145.753.193.12.559-.035.815-.343.605-.729-.021-1.113-.67-.41m-2 2c-.273.295-.338.634-.145.753.193.12.559-.035.815-.343.605-.729-.021-1.113-.67-.41m-2 2c-.273.295-.338.634-.145.753.193.12.559-.035.815-.343.605-.729-.021-1.113-.67-.41m-2 2c-.273.295-.338.634-.145.753.193.12.559-.035.815-.343.605-.729-.021-1.113-.67-.41m-2 2c-.273.295-.338.634-.145.753.193.12.559-.035.815-.343.605-.729-.021-1.113-.67-.41m-2 2c-.273.295-.338.634-.145.753.193.12.559-.035.815-.343.605-.729-.021-1.113-.67-.41" fill="#3c712f"/></g></svg>